Interstate-Regular.ufo
<glyph name="exclam" format="1">
  <advance width="298"/>
  <unicode hex="0021"/>
  <outline>
    <contour>
      <point x="202" y="389" type="line"/>
      <point x="182" y="202" type="line"/>
      <point x="116" y="202" type="line"/>
      <point x="96" y="389" type="line"/>
      <point x="96" y="700" type="line"/>
      <point x="202" y="700" type="line"/>
    </contour>
    <contour>
      <point x="224" y="64" type="curve" smooth="yes"/>
      <point x="224" y="23"/>
      <point x="190" y="-11"/>
      <point x="149" y="-11" type="curve" smooth="yes"/>
      <point x="108" y="-11"/>
      <point x="74" y="23"/>
      <point x="74" y="64" type="curve" smooth="yes"/>
      <point x="74" y="105"/>
      <point x="108" y="140"/>
      <point x="149" y="140" type="curve" smooth="yes"/>
      <point x="190" y="140"/>
      <point x="224" y="105"/>
    </contour>
  </outline>
</glyph>
<glyph name="quotedbl" format="1">
  <advance width="490"/>
  <unicode hex="0022"/>
  <outline>
    <contour>
      <point x="418" y="700" type="line"/>
      <point x="393" y="373" type="line"/>
      <point x="318" y="373" type="line"/>
      <point x="293" y="700" type="line"/>
    </contour>
    <contour>
      <point x="197" y="700" type="line"/>
      <point x="172" y="373" type="line"/>
      <point x="97" y="373" type="line"/>
      <point x="72" y="700" type="line"/>
    </contour>
  </outline>
</glyph>
<glyph name="numbersign" format="1">
  <advance width="700"/>
  <unicode hex="0023"/>
  <outline>
    <contour>
      <point x="650" y="160" type="line"/>
      <point x="530" y="160" type="line"/>
      <point x="530" y="0" type="line"/>
      <point x="432" y="0" type="line"/>
      <point x="432" y="160" type="line"/>
      <point x="268" y="160" type="line"/>
      <point x="268" y="0" type="line"/>
      <point x="170" y="0" type="line"/>
      <point x="170" y="160" type="line"/>
      <point x="50" y="160" type="line"/>
      <point x="50" y="255" type="line"/>
      <point x="170" y="255" type="line"/>
      <point x="170" y="445" type="line"/>
      <point x="50" y="445" type="line"/>
      <point x="50" y="540" type="line"/>
      <point x="170" y="540" type="line"/>
      <point x="170" y="700" type="line"/>
      <point x="268" y="700" type="line"/>
      <point x="268" y="540" type="line"/>
      <point x="432" y="540" type="line"/>
      <point x="432" y="700" type="line"/>
      <point x="530" y="700" type="line"/>
      <point x="530" y="540" type="line"/>
      <point x="650" y="540" type="line"/>
      <point x="650" y="445" type="line"/>
      <point x="530" y="445" type="line"/>
      <point x="530" y="255" type="line"/>
      <point x="650" y="255" type="line"/>
    </contour>
    <contour>
      <point x="432" y="255" type="line"/>
      <point x="432" y="445" type="line"/>
      <point x="268" y="445" type="line"/>
      <point x="268" y="255" type="line"/>
    </contour>
  </outline>
</glyph>
<glyph name="dollar" format="1">
  <advance width="616"/>
  <unicode hex="0024"/>
  <outline>
    <contour>
      <point x="554" y="206" type="curve" smooth="yes"/>
      <point x="554" y="91"/>
      <point x="488" y="19"/>
      <point x="356" y="2" type="curve"/>
      <point x="356" y="-100" type="line"/>
      <point x="251" y="-100" type="line"/>
      <point x="251" y="2" type="line"/>
      <point x="168" y="13"/>
      <point x="92" y="54"/>
      <point x="46" y="113" type="curve"/>
      <point x="126" y="181" type="line"/>
      <point x="177" y="126"/>
      <point x="237" y="100"/>
      <point x="303" y="100" type="curve" smooth="yes"/>
      <point x="403" y="100"/>
      <point x="447" y="133"/>
      <point x="447" y="195" type="curve" smooth="yes"/>
      <point x="447" y="250"/>
      <point x="408" y="274"/>
      <point x="291" y="309" type="curve" smooth="yes"/>
      <point x="142" y="353"/>
      <point x="72" y="390"/>
      <point x="72" y="511" type="curve" smooth="yes"/>
      <point x="72" y="615"/>
      <point x="149" y="681"/>
      <point x="251" y="697" type="curve"/>
      <point x="251" y="800" type="line"/>
      <point x="356" y="800" type="line"/>
      <point x="356" y="697" type="line"/>
      <point x="426" y="686"/>
      <point x="483" y="654"/>
      <point x="532" y="605" type="curve"/>
      <point x="459" y="531" type="line"/>
      <point x="410" y="574"/>
      <point x="367" y="600"/>
      <point x="295" y="600" type="curve" smooth="yes"/>
      <point x="214" y="600"/>
      <point x="179" y="567"/>
      <point x="179" y="520" type="curve" smooth="yes"/>
      <point x="179" y="472"/>
      <point x="207" y="450"/>
      <point x="330" y="413" type="curve" smooth="yes"/>
      <point x="471" y="370"/>
      <point x="554" y="333"/>
    </contour>
  </outline>
</glyph>
<glyph name="ampersand" format="1">
  <advance width="680"/>
  <unicode hex="0026"/>
  <outline>
    <contour>
      <point x="650" y="0" type="line"/>
      <point x="530" y="0" type="line"/>
      <point x="475" y="65" type="line"/>
      <point x="423" y="19"/>
      <point x="357" y="-11"/>
      <point x="278" y="-11" type="curve" smooth="yes"/>
      <point x="129" y="-11"/>
      <point x="58" y="66"/>
      <point x="58" y="179" type="curve" smooth="yes"/>
      <point x="58" y="274"/>
      <point x="108" y="331"/>
      <point x="205" y="386" type="curve"/>
      <point x="192" y="402" type="line" smooth="yes"/>
      <point x="146" y="459"/>
      <point x="126" y="498"/>
      <point x="126" y="550" type="curve" smooth="yes"/>
      <point x="126" y="651"/>
      <point x="201" y="711"/>
      <point x="320" y="711" type="curve" smooth="yes"/>
      <point x="385" y="711"/>
      <point x="447" y="688"/>
      <point x="508" y="645" type="curve"/>
      <point x="459" y="561" type="line"/>
      <point x="405" y="600"/>
      <point x="365" y="614"/>
      <point x="311" y="614" type="curve" smooth="yes"/>
      <point x="257" y="614"/>
      <point x="231" y="591"/>
      <point x="231" y="552" type="curve" smooth="yes"/>
      <point x="231" y="523"/>
      <point x="238" y="504"/>
      <point x="267" y="468" type="curve" smooth="yes"/>
      <point x="472" y="217" type="line"/>
      <point x="493" y="253"/>
      <point x="509" y="294"/>
      <point x="520" y="333" type="curve"/>
      <point x="615" y="306" type="line"/>
      <point x="600" y="249"/>
      <point x="575" y="189"/>
      <point x="539" y="137" type="curve"/>
    </contour>
    <contour>
      <point x="413" y="139" type="curve"/>
      <point x="265" y="315" type="line"/>
      <point x="199" y="278"/>
      <point x="163" y="241"/>
      <point x="163" y="184" type="curve" smooth="yes"/>
      <point x="163" y="128"/>
      <point x="201" y="85"/>
      <point x="282" y="85" type="curve" smooth="yes"/>
      <point x="334" y="85"/>
      <point x="378" y="106"/>
    </contour>
  </outline>
</glyph>
<glyph name="quotesingle" format="1">
  <advance width="269"/>
  <unicode hex="0027"/>
  <outline>
    <contour>
      <point x="200" y="700" type="line"/>
      <point x="175" y="373" type="line"/>
      <point x="94" y="373" type="line"/>
      <point x="69" y="700" type="line"/>
    </contour>
  </outline>
</glyph>
<glyph name="parenleft" format="1">
  <advance width="353"/>
  <unicode hex="0028"/>
  <outline>
    <contour>
      <point x="305" y="-65" type="curve"/>
      <point x="253" y="-110" type="line"/>
      <point x="153" y="-15"/>
      <point x="58" y="119"/>
      <point x="58" y="300" type="curve" smooth="yes"/>
      <point x="58" y="487"/>
      <point x="151" y="619"/>
      <point x="253" y="716" type="curve"/>
      <point x="305" y="671" type="line"/>
      <point x="216" y="572"/>
      <point x="167" y="457"/>
      <point x="167" y="305" type="curve" smooth="yes"/>
      <point x="167" y="141"/>
      <point x="220" y="31"/>
    </contour>
  </outline>
</glyph>
<glyph name="parenright" format="1">
  <advance width="353"/>
  <unicode hex="0029"/>
  <outline>
    <contour>
      <point x="295" y="307" type="curve" smooth="yes"/>
      <point x="295" y="120"/>
      <point x="202" y="-12"/>
      <point x="100" y="-109" type="curve"/>
      <point x="48" y="-64" type="line"/>
      <point x="137" y="35"/>
      <point x="186" y="150"/>
      <point x="186" y="302" type="curve" smooth="yes"/>
      <point x="186" y="466"/>
      <point x="133" y="576"/>
      <point x="48" y="672" type="curve"/>
      <point x="100" y="717" type="line"/>
      <point x="200" y="622"/>
      <point x="295" y="488"/>
    </contour>
  </outline>
</glyph>
<glyph name="asterisk" format="1">
  <advance width="500"/>
  <unicode hex="002A"/>
  <outline>
    <contour>
      <point x="448" y="436" type="line"/>
      <point x="403" y="360" type="line"/>
      <point x="279" y="449" type="line"/>
      <point x="295" y="296" type="line"/>
      <point x="207" y="296" type="line"/>
      <point x="222" y="450" type="line"/>
      <point x="97" y="360" type="line"/>
      <point x="52" y="436" type="line"/>
      <point x="192" y="499" type="line"/>
      <point x="53" y="562" type="line"/>
      <point x="98" y="638" type="line"/>
      <point x="222" y="547" type="line"/>
      <point x="207" y="700" type="line"/>
      <point x="295" y="700" type="line"/>
      <point x="279" y="549" type="line"/>
      <point x="402" y="638" type="line"/>
      <point x="447" y="562" type="line"/>
      <point x="305" y="499" type="line"/>
    </contour>
  </outline>
</glyph>
<glyph name="plus" format="1">
  <advance width="593"/>
  <unicode hex="002B"/>
  <outline>
    <contour>
      <point x="538" y="294" type="line"/>
      <point x="348" y="294" type="line"/>
      <point x="348" y="99" type="line"/>
      <point x="245" y="99" type="line"/>
      <point x="245" y="294" type="line"/>
      <point x="55" y="294" type="line"/>
      <point x="55" y="394" type="line"/>
      <point x="245" y="394" type="line"/>
      <point x="245" y="589" type="line"/>
      <point x="348" y="589" type="line"/>
      <point x="348" y="394" type="line"/>
      <point x="538" y="394" type="line"/>
    </contour>
  </outline>
</glyph>
<glyph name="comma" format="1">
  <advance width="254"/>
  <unicode hex="002C"/>
  <outline>
    <contour>
      <point x="201" y="139" type="line"/>
      <point x="126" y="-126" type="line"/>
      <point x="55" y="-126" type="line"/>
      <point x="70" y="139" type="line"/>
    </contour>
  </outline>
</glyph>
<glyph name="hyphen" format="1">
  <advance width="360"/>
  <unicode hex="002D"/>
  <unicode hex="2010"/>
  <unicode hex="2011"/>
  <outline>
    <contour>
      <point x="305" y="315" type="line"/>
      <point x="55" y="315" type="line"/>
      <point x="55" y="417" type="line"/>
      <point x="305" y="417" type="line"/>
    </contour>
  </outline>
</glyph>
<glyph name="period" format="1">
  <advance width="254"/>
  <unicode hex="002E"/>
  <outline>
    <contour>
      <point x="206" y="68" type="curve" smooth="yes"/>
      <point x="206" y="25"/>
      <point x="170" y="-11"/>
      <point x="127" y="-11" type="curve" smooth="yes"/>
      <point x="84" y="-11"/>
      <point x="48" y="25"/>
      <point x="48" y="68" type="curve" smooth="yes"/>
      <point x="48" y="111"/>
      <point x="84" y="148"/>
      <point x="127" y="148" type="curve" smooth="yes"/>
      <point x="170" y="148"/>
      <point x="206" y="111"/>
    </contour>
  </outline>
</glyph>
<glyph name="slash" format="1">
  <advance width="446"/>
  <unicode hex="002F"/>
  <outline>
    <contour>
      <point x="430" y="790" type="line"/>
      <point x="119" y="-90" type="line"/>
      <point x="16" y="-90" type="line"/>
      <point x="327" y="790" type="line"/>
    </contour>
  </outline>
</glyph>
<glyph name="zero" format="1">
  <advance width="662"/>
  <unicode hex="0030"/>
  <outline>
    <contour>
      <point x="607" y="351" type="curve" smooth="yes"/>
      <point x="607" y="139"/>
      <point x="511" y="-11"/>
      <point x="330" y="-11" type="curve" smooth="yes"/>
      <point x="149" y="-11"/>
      <point x="55" y="137"/>
      <point x="55" y="349" type="curve" smooth="yes"/>
      <point x="55" y="561"/>
      <point x="151" y="711"/>
      <point x="332" y="711" type="curve" smooth="yes"/>
      <point x="513" y="711"/>
      <point x="607" y="563"/>
    </contour>
    <contour>
      <point x="501" y="349" type="curve" smooth="yes"/>
      <point x="501" y="496"/>
      <point x="453" y="609"/>
      <point x="330" y="609" type="curve" smooth="yes"/>
      <point x="208" y="609"/>
      <point x="161" y="498"/>
      <point x="161" y="351" type="curve" smooth="yes"/>
      <point x="161" y="204"/>
      <point x="210" y="91"/>
      <point x="332" y="91" type="curve" smooth="yes"/>
      <point x="455" y="91"/>
      <point x="501" y="202"/>
    </contour>
  </outline>
</glyph>
<glyph name="one" format="1">
  <advance width="342"/>
  <unicode hex="0031"/>
  <outline>
    <contour>
      <point x="248" y="0" type="line"/>
      <point x="143" y="0" type="line"/>
      <point x="143" y="536" type="line"/>
      <point x="19" y="536" type="line"/>
      <point x="19" y="609" type="line"/>
      <point x="91" y="614"/>
      <point x="150" y="638"/>
      <point x="163" y="700" type="curve"/>
      <point x="248" y="700" type="line"/>
    </contour>
  </outline>
</glyph>
<glyph name="two" format="1">
  <advance width="633"/>
  <unicode hex="0032"/>
  <outline>
    <contour>
      <point x="550" y="0" type="line"/>
      <point x="48" y="0" type="line"/>
      <point x="55" y="205"/>
      <point x="179" y="296"/>
      <point x="317" y="378" type="curve" smooth="yes"/>
      <point x="412" y="434"/>
      <point x="436" y="465"/>
      <point x="436" y="514" type="curve" smooth="yes"/>
      <point x="436" y="570"/>
      <point x="398" y="606"/>
      <point x="302" y="606" type="curve" smooth="yes"/>
      <point x="243" y="606"/>
      <point x="178" y="579"/>
      <point x="133" y="536" type="curve"/>
      <point x="66" y="616" type="line"/>
      <point x="129" y="675"/>
      <point x="218" y="711"/>
      <point x="305" y="711" type="curve" smooth="yes"/>
      <point x="450" y="711"/>
      <point x="543" y="649"/>
      <point x="543" y="520" type="curve" smooth="yes"/>
      <point x="543" y="412"/>
      <point x="490" y="366"/>
      <point x="367" y="293" type="curve" smooth="yes"/>
      <point x="233" y="214"/>
      <point x="195" y="169"/>
      <point x="179" y="102" type="curve"/>
      <point x="550" y="102" type="line"/>
    </contour>
  </outline>
</glyph>
<glyph name="three" format="1">
  <advance width="612"/>
  <unicode hex="0033"/>
  <outline>
    <contour>
      <point x="541" y="208" type="curve" smooth="yes"/>
      <point x="541" y="65"/>
      <point x="443" y="-11"/>
      <point x="279" y="-11" type="curve" smooth="yes"/>
      <point x="180" y="-11"/>
      <point x="76" y="33"/>
      <point x="27" y="105" type="curve"/>
      <point x="107" y="173" type="line"/>
      <point x="150" y="119"/>
      <point x="216" y="93"/>
      <point x="279" y="93" type="curve" smooth="yes"/>
      <point x="391" y="93"/>
      <point x="432" y="136"/>
      <point x="432" y="208" type="curve" smooth="yes"/>
      <point x="432" y="280"/>
      <point x="378" y="313"/>
      <point x="305" y="313" type="curve" smooth="yes"/>
      <point x="240" y="313" type="line"/>
      <point x="240" y="415" type="line"/>
      <point x="304" y="415" type="line" smooth="yes"/>
      <point x="369" y="415"/>
      <point x="403" y="458"/>
      <point x="403" y="511" type="curve" smooth="yes"/>
      <point x="403" y="551"/>
      <point x="374" y="607"/>
      <point x="271" y="607" type="curve" smooth="yes"/>
      <point x="216" y="607"/>
      <point x="172" y="583"/>
      <point x="133" y="542" type="curve"/>
      <point x="55" y="616" type="line"/>
      <point x="114" y="677"/>
      <point x="185" y="711"/>
      <point x="273" y="711" type="curve" smooth="yes"/>
      <point x="405" y="711"/>
      <point x="512" y="643"/>
      <point x="512" y="521" type="curve" smooth="yes"/>
      <point x="512" y="437"/>
      <point x="475" y="395"/>
      <point x="427" y="368" type="curve"/>
      <point x="493" y="349"/>
      <point x="541" y="295"/>
    </contour>
  </outline>
</glyph>
<glyph name="four" format="1">
  <advance width="667"/>
  <unicode hex="0034"/>
  <outline>
    <contour>
      <point x="615" y="157" type="line"/>
      <point x="522" y="157" type="line"/>
      <point x="522" y="0" type="line"/>
      <point x="420" y="0" type="line"/>
      <point x="420" y="154" type="line"/>
      <point x="41" y="154" type="line"/>
      <point x="41" y="254" type="line"/>
      <point x="402" y="700" type="line"/>
      <point x="522" y="700" type="line"/>
      <point x="522" y="250" type="line"/>
      <point x="615" y="250" type="line"/>
    </contour>
    <contour>
      <point x="423" y="582" type="curve"/>
      <point x="410" y="564"/>
      <point x="383" y="528"/>
      <point x="360" y="499" type="curve" smooth="yes"/>
      <point x="225" y="327" type="line" smooth="yes"/>
      <point x="204" y="300"/>
      <point x="174" y="265"/>
      <point x="159" y="249" type="curve"/>
      <point x="183" y="249"/>
      <point x="236" y="250"/>
      <point x="272" y="250" type="curve" smooth="yes"/>
      <point x="420" y="250" type="line"/>
      <point x="420" y="454" type="line" smooth="yes"/>
      <point x="420" y="494"/>
      <point x="423" y="556"/>
    </contour>
  </outline>
</glyph>
<glyph name="five" format="1">
  <advance width="636"/>
  <unicode hex="0035"/>
  <outline>
    <contour>
      <point x="574" y="238" type="curve" smooth="yes"/>
      <point x="574" y="67"/>
      <point x="460" y="-11"/>
      <point x="298" y="-11" type="curve" smooth="yes"/>
      <point x="209" y="-11"/>
      <point x="129" y="10"/>
      <point x="54" y="58" type="curve"/>
      <point x="105" y="145" type="line"/>
      <point x="164" y="112"/>
      <point x="238" y="91"/>
      <point x="301" y="91" type="curve" smooth="yes"/>
      <point x="410" y="91"/>
      <point x="467" y="144"/>
      <point x="467" y="233" type="curve" smooth="yes"/>
      <point x="467" y="316"/>
      <point x="412" y="358"/>
      <point x="325" y="358" type="curve" smooth="yes"/>
      <point x="266" y="358"/>
      <point x="226" y="341"/>
      <point x="190" y="314" type="curve"/>
      <point x="78" y="358" type="line"/>
      <point x="102" y="700" type="line"/>
      <point x="532" y="700" type="line"/>
      <point x="532" y="600" type="line"/>
      <point x="196" y="600" type="line"/>
      <point x="182" y="423" type="line"/>
      <point x="221" y="445"/>
      <point x="270" y="459"/>
      <point x="333" y="459" type="curve" smooth="yes"/>
      <point x="493" y="459"/>
      <point x="574" y="365"/>
    </contour>
  </outline>
</glyph>
<glyph name="six" format="1">
  <advance width="636"/>
  <unicode hex="0036"/>
  <outline>
    <contour>
      <point x="592" y="222" type="curve" smooth="yes"/>
      <point x="592" y="69"/>
      <point x="472" y="-11"/>
      <point x="318" y="-11" type="curve" smooth="yes"/>
      <point x="171" y="-11"/>
      <point x="55" y="70"/>
      <point x="55" y="268" type="curve" smooth="yes"/>
      <point x="55" y="451"/>
      <point x="157" y="701"/>
      <point x="489" y="711" type="curve"/>
      <point x="489" y="612" type="line"/>
      <point x="328" y="605"/>
      <point x="218" y="531"/>
      <point x="173" y="385" type="curve"/>
      <point x="222" y="424"/>
      <point x="272" y="441"/>
      <point x="357" y="441" type="curve" smooth="yes"/>
      <point x="484" y="441"/>
      <point x="592" y="371"/>
    </contour>
    <contour>
      <point x="486" y="220" type="curve" smooth="yes"/>
      <point x="486" y="304"/>
      <point x="427" y="342"/>
      <point x="327" y="342" type="curve" smooth="yes"/>
      <point x="225" y="342"/>
      <point x="162" y="301"/>
      <point x="162" y="219" type="curve" smooth="yes"/>
      <point x="162" y="151"/>
      <point x="217" y="91"/>
      <point x="322" y="91" type="curve" smooth="yes"/>
      <point x="428" y="91"/>
      <point x="486" y="141"/>
    </contour>
  </outline>
</glyph>
<glyph name="seven" format="1">
  <advance width="594"/>
  <unicode hex="0037"/>
  <outline>
    <contour>
      <point x="513" y="594" type="line"/>
      <point x="394" y="461"/>
      <point x="285" y="260"/>
      <point x="280" y="0" type="curve"/>
      <point x="174" y="0" type="line"/>
      <point x="178" y="241"/>
      <point x="260" y="429"/>
      <point x="391" y="598" type="curve"/>
      <point x="24" y="598" type="line"/>
      <point x="24" y="700" type="line"/>
      <point x="513" y="700" type="line"/>
    </contour>
  </outline>
</glyph>
<glyph name="eight" format="1">
  <advance width="670"/>
  <unicode hex="0038"/>
  <outline>
    <contour>
      <point x="610" y="204" type="curve" smooth="yes"/>
      <point x="610" y="66"/>
      <point x="502" y="-11"/>
      <point x="333" y="-11" type="curve" smooth="yes"/>
      <point x="164" y="-11"/>
      <point x="60" y="66"/>
      <point x="60" y="204" type="curve" smooth="yes"/>
      <point x="60" y="288"/>
      <point x="103" y="348"/>
      <point x="184" y="378" type="curve"/>
      <point x="112" y="408"/>
      <point x="90" y="471"/>
      <point x="90" y="513" type="curve" smooth="yes"/>
      <point x="90" y="648"/>
      <point x="199" y="711"/>
      <point x="336" y="711" type="curve" smooth="yes"/>
      <point x="461" y="711"/>
      <point x="580" y="650"/>
      <point x="580" y="515" type="curve" smooth="yes"/>
      <point x="580" y="474"/>
      <point x="558" y="407"/>
      <point x="486" y="378" type="curve"/>
      <point x="561" y="350"/>
      <point x="610" y="294"/>
    </contour>
    <contour>
      <point x="474" y="512" type="curve" smooth="yes"/>
      <point x="474" y="565"/>
      <point x="436" y="615"/>
      <point x="334" y="615" type="curve" smooth="yes"/>
      <point x="232" y="615"/>
      <point x="196" y="569"/>
      <point x="196" y="516" type="curve" smooth="yes"/>
      <point x="196" y="460"/>
      <point x="249" y="420"/>
      <point x="336" y="420" type="curve" smooth="yes"/>
      <point x="426" y="420"/>
      <point x="474" y="461"/>
    </contour>
    <contour>
      <point x="504" y="201" type="curve" smooth="yes"/>
      <point x="504" y="275"/>
      <point x="451" y="321"/>
      <point x="334" y="321" type="curve" smooth="yes"/>
      <point x="222" y="321"/>
      <point x="166" y="277"/>
      <point x="166" y="206" type="curve" smooth="yes"/>
      <point x="166" y="132"/>
      <point x="227" y="85"/>
      <point x="335" y="85" type="curve" smooth="yes"/>
      <point x="447" y="85"/>
      <point x="504" y="133"/>
    </contour>
  </outline>
</glyph>
<glyph name="nine" format="1">
  <advance width="636"/>
  <unicode hex="0039"/>
  <outline>
    <contour>
      <point x="581" y="432" type="curve" smooth="yes"/>
      <point x="581" y="249"/>
      <point x="479" y="-1"/>
      <point x="147" y="-11" type="curve"/>
      <point x="147" y="88" type="line"/>
      <point x="308" y="95"/>
      <point x="418" y="169"/>
      <point x="463" y="315" type="curve"/>
      <point x="414" y="276"/>
      <point x="364" y="259"/>
      <point x="279" y="259" type="curve" smooth="yes"/>
      <point x="152" y="259"/>
      <point x="44" y="329"/>
      <point x="44" y="478" type="curve" smooth="yes"/>
      <point x="44" y="631"/>
      <point x="164" y="711"/>
      <point x="318" y="711" type="curve" smooth="yes"/>
      <point x="465" y="711"/>
      <point x="581" y="630"/>
    </contour>
    <contour>
      <point x="474" y="481" type="curve" smooth="yes"/>
      <point x="474" y="549"/>
      <point x="419" y="609"/>
      <point x="314" y="609" type="curve" smooth="yes"/>
      <point x="208" y="609"/>
      <point x="150" y="559"/>
      <point x="150" y="480" type="curve" smooth="yes"/>
      <point x="150" y="396"/>
      <point x="209" y="358"/>
      <point x="309" y="358" type="curve" smooth="yes"/>
      <point x="411" y="358"/>
      <point x="474" y="399"/>
    </contour>
  </outline>
</glyph>
<glyph name="colon" format="1">
  <advance width="254"/>
  <unicode hex="003A"/>
  <outline>
    <contour>
      <point x="206" y="456" type="curve" smooth="yes"/>
      <point x="206" y="413"/>
      <point x="170" y="377"/>
      <point x="127" y="377" type="curve" smooth="yes"/>
      <point x="84" y="377"/>
      <point x="48" y="413"/>
      <point x="48" y="456" type="curve" smooth="yes"/>
      <point x="48" y="499"/>
      <point x="84" y="536"/>
      <point x="127" y="536" type="curve" smooth="yes"/>
      <point x="170" y="536"/>
      <point x="206" y="499"/>
    </contour>
    <contour>
      <point x="206" y="68" type="curve" smooth="yes"/>
      <point x="206" y="25"/>
      <point x="170" y="-11"/>
      <point x="127" y="-11" type="curve" smooth="yes"/>
      <point x="84" y="-11"/>
      <point x="48" y="25"/>
      <point x="48" y="68" type="curve" smooth="yes"/>
      <point x="48" y="111"/>
      <point x="84" y="148"/>
      <point x="127" y="148" type="curve" smooth="yes"/>
      <point x="170" y="148"/>
      <point x="206" y="111"/>
    </contour>
  </outline>
</glyph>
<glyph name="semicolon" format="1">
  <advance width="254"/>
  <unicode hex="003B"/>
  <outline>
    <contour>
      <point x="206" y="456" type="curve" smooth="yes"/>
      <point x="206" y="413"/>
      <point x="170" y="377"/>
      <point x="127" y="377" type="curve" smooth="yes"/>
      <point x="84" y="377"/>
      <point x="48" y="413"/>
      <point x="48" y="456" type="curve" smooth="yes"/>
      <point x="48" y="499"/>
      <point x="84" y="536"/>
      <point x="127" y="536" type="curve" smooth="yes"/>
      <point x="170" y="536"/>
      <point x="206" y="499"/>
    </contour>
    <contour>
      <point x="194" y="139" type="line"/>
      <point x="119" y="-126" type="line"/>
      <point x="48" y="-126" type="line"/>
      <point x="63" y="139" type="line"/>
    </contour>
  </outline>
</glyph>
<glyph name="less" format="1">
  <advance width="414"/>
  <unicode hex="003C"/>
  <outline>
    <contour>
      <point x="348" y="47" type="line"/>
      <point x="57" y="300" type="line"/>
      <point x="57" y="388" type="line"/>
      <point x="348" y="641" type="line"/>
      <point x="348" y="511" type="line"/>
      <point x="154" y="345" type="line"/>
      <point x="348" y="178" type="line"/>
    </contour>
  </outline>
</glyph>
<glyph name="equal" format="1">
  <advance width="593"/>
  <unicode hex="003D"/>
  <outline>
    <contour>
      <point x="513" y="409" type="line"/>
      <point x="80" y="409" type="line"/>
      <point x="80" y="509" type="line"/>
      <point x="513" y="509" type="line"/>
    </contour>
    <contour>
      <point x="513" y="179" type="line"/>
      <point x="80" y="179" type="line"/>
      <point x="80" y="279" type="line"/>
      <point x="513" y="279" type="line"/>
    </contour>
  </outline>
</glyph>
<glyph name="greater" format="1">
  <advance width="414"/>
  <unicode hex="003E"/>
  <outline>
    <contour>
      <point x="357" y="300" type="line"/>
      <point x="66" y="47" type="line"/>
      <point x="66" y="177" type="line"/>
      <point x="260" y="343" type="line"/>
      <point x="66" y="510" type="line"/>
      <point x="66" y="641" type="line"/>
      <point x="357" y="388" type="line"/>
    </contour>
  </outline>
</glyph>
<glyph name="question" format="1">
  <advance width="571"/>
  <unicode hex="003F"/>
  <outline>
    <contour>
      <point x="517" y="525" type="curve" smooth="yes"/>
      <point x="517" y="428"/>
      <point x="472" y="385"/>
      <point x="388" y="338" type="curve" smooth="yes"/>
      <point x="323" y="302"/>
      <point x="313" y="278"/>
      <point x="313" y="202" type="curve"/>
      <point x="204" y="202" type="line"/>
      <point x="204" y="319"/>
      <point x="225" y="359"/>
      <point x="336" y="420" type="curve" smooth="yes"/>
      <point x="387" y="448"/>
      <point x="410" y="471"/>
      <point x="410" y="519" type="curve" smooth="yes"/>
      <point x="410" y="575"/>
      <point x="361" y="607"/>
      <point x="275" y="607" type="curve" smooth="yes"/>
      <point x="201" y="607"/>
      <point x="151" y="577"/>
      <point x="101" y="529" type="curve"/>
      <point x="34" y="608" type="line"/>
      <point x="91" y="665"/>
      <point x="174" y="711"/>
      <point x="278" y="711" type="curve" smooth="yes"/>
      <point x="420" y="711"/>
      <point x="517" y="647"/>
    </contour>
    <contour>
      <point x="333" y="64" type="curve" smooth="yes"/>
      <point x="333" y="23"/>
      <point x="299" y="-11"/>
      <point x="258" y="-11" type="curve" smooth="yes"/>
      <point x="217" y="-11"/>
      <point x="183" y="23"/>
      <point x="183" y="64" type="curve" smooth="yes"/>
      <point x="183" y="105"/>
      <point x="217" y="140"/>
      <point x="258" y="140" type="curve" smooth="yes"/>
      <point x="299" y="140"/>
      <point x="333" y="105"/>
    </contour>
  </outline>
</glyph>
<glyph name="at" format="1">
  <advance width="836"/>
  <unicode hex="0040"/>
  <outline>
    <contour>
      <point x="779" y="360" type="curve" smooth="yes"/>
      <point x="779" y="209"/>
      <point x="715" y="154"/>
      <point x="627" y="154" type="curve" smooth="yes"/>
      <point x="575" y="154"/>
      <point x="538" y="180"/>
      <point x="520" y="216" type="curve"/>
      <point x="496" y="184"/>
      <point x="440" y="154"/>
      <point x="392" y="154" type="curve" smooth="yes"/>
      <point x="315" y="154"/>
      <point x="240" y="198"/>
      <point x="240" y="291" type="curve" smooth="yes"/>
      <point x="240" y="377"/>
      <point x="315" y="418"/>
      <point x="401" y="418" type="curve" smooth="yes"/>
      <point x="441" y="418"/>
      <point x="478" y="405"/>
      <point x="500" y="392" type="curve"/>
      <point x="500" y="443" type="line" smooth="yes"/>
      <point x="500" y="485"/>
      <point x="467" y="502"/>
      <point x="407" y="502" type="curve" smooth="yes"/>
      <point x="370" y="502"/>
      <point x="339" y="496"/>
      <point x="310" y="478" type="curve"/>
      <point x="282" y="527" type="line"/>
      <point x="319" y="549"/>
      <point x="365" y="561"/>
      <point x="411" y="561" type="curve" smooth="yes"/>
      <point x="505" y="561"/>
      <point x="567" y="522"/>
      <point x="567" y="441" type="curve" smooth="yes"/>
      <point x="567" y="273" type="line" smooth="yes"/>
      <point x="567" y="237"/>
      <point x="586" y="213"/>
      <point x="633" y="213" type="curve" smooth="yes"/>
      <point x="695" y="213"/>
      <point x="721" y="265"/>
      <point x="721" y="361" type="curve" smooth="yes"/>
      <point x="721" y="520"/>
      <point x="592" y="654"/>
      <point x="418" y="654" type="curve" smooth="yes"/>
      <point x="243" y="654"/>
      <point x="115" y="525"/>
      <point x="115" y="351" type="curve" smooth="yes"/>
      <point x="115" y="176"/>
      <point x="243" y="47"/>
      <point x="418" y="47" type="curve" smooth="yes"/>
      <point x="463" y="47"/>
      <point x="503" y="54"/>
      <point x="548" y="76" type="curve"/>
      <point x="572" y="23" type="line"/>
      <point x="515" y="-3"/>
      <point x="475" y="-11"/>
      <point x="418" y="-11" type="curve" smooth="yes"/>
      <point x="209" y="-11"/>
      <point x="57" y="141"/>
      <point x="57" y="350" type="curve" smooth="yes"/>
      <point x="57" y="559"/>
      <point x="209" y="711"/>
      <point x="418" y="711" type="curve" smooth="yes"/>
      <point x="631" y="711"/>
      <point x="779" y="550"/>
    </contour>
    <contour>
      <point x="500" y="270" type="curve"/>
      <point x="500" y="331" type="line"/>
      <point x="480" y="346"/>
      <point x="442" y="361"/>
      <point x="397" y="361" type="curve" smooth="yes"/>
      <point x="340" y="361"/>
      <point x="305" y="337"/>
      <point x="305" y="293" type="curve" smooth="yes"/>
      <point x="305" y="245"/>
      <point x="339" y="214"/>
      <point x="402" y="214" type="curve" smooth="yes"/>
      <point x="439" y="214"/>
      <point x="482" y="237"/>
    </contour>
  </outline>
</glyph>
<glyph name="A" format="1">
  <advance width="712"/>
  <unicode hex="0041"/>
  <outline>
    <contour>
      <point x="665" y="0" type="line"/>
      <point x="553" y="0" type="line"/>
      <point x="494" y="166" type="line"/>
      <point x="214" y="166" type="line"/>
      <point x="156" y="0" type="line"/>
      <point x="47" y="0" type="line"/>
      <point x="299" y="700" type="line"/>
      <point x="410" y="700" type="line"/>
    </contour>
    <contour>
      <point x="462" y="260" type="line"/>
      <point x="406" y="421" type="line" smooth="yes"/>
      <point x="389" y="471"/>
      <point x="361" y="552"/>
      <point x="353" y="582" type="curve"/>
      <point x="345" y="552"/>
      <point x="320" y="472"/>
      <point x="302" y="420" type="curve" smooth="yes"/>
      <point x="246" y="260" type="line"/>
    </contour>
  </outline>
</glyph>
<glyph name="B" format="1">
  <advance width="675"/>
  <unicode hex="0042"/>
  <outline>
    <contour>
      <point x="609" y="215" type="curve" smooth="yes"/>
      <point x="609" y="73"/>
      <point x="522" y="0"/>
      <point x="369" y="0" type="curve" smooth="yes"/>
      <point x="91" y="0" type="line"/>
      <point x="91" y="700" type="line"/>
      <point x="379" y="700" type="line" smooth="yes"/>
      <point x="501" y="700"/>
      <point x="580" y="636"/>
      <point x="580" y="518" type="curve" smooth="yes"/>
      <point x="580" y="447"/>
      <point x="542" y="403"/>
      <point x="491" y="378" type="curve"/>
      <point x="546" y="363"/>
      <point x="609" y="312"/>
    </contour>
    <contour>
      <point x="475" y="512" type="curve" smooth="yes"/>
      <point x="475" y="564"/>
      <point x="448" y="604"/>
      <point x="378" y="604" type="curve" smooth="yes"/>
      <point x="190" y="604" type="line"/>
      <point x="190" y="423" type="line"/>
      <point x="378" y="423" type="line" smooth="yes"/>
      <point x="447" y="423"/>
      <point x="475" y="466"/>
    </contour>
    <contour>
      <point x="504" y="212" type="curve" smooth="yes"/>
      <point x="504" y="284"/>
      <point x="459" y="328"/>
      <point x="380" y="328" type="curve" smooth="yes"/>
      <point x="190" y="328" type="line"/>
      <point x="190" y="96" type="line"/>
      <point x="377" y="96" type="line" smooth="yes"/>
      <point x="470" y="96"/>
      <point x="504" y="143"/>
    </contour>
  </outline>
</glyph>
<glyph name="C" format="1">
  <advance width="655"/>
  <unicode hex="0043"/>
  <outline>
    <contour>
      <point x="595" y="123" type="line"/>
      <point x="545" y="37"/>
      <point x="460" y="-11"/>
      <point x="354" y="-11" type="curve" smooth="yes"/>
      <point x="173" y="-11"/>
      <point x="58" y="138"/>
      <point x="58" y="350" type="curve" smooth="yes"/>
      <point x="58" y="562"/>
      <point x="173" y="711"/>
      <point x="354" y="711" type="curve" smooth="yes"/>
      <point x="468" y="711"/>
      <point x="544" y="665"/>
      <point x="592" y="580" type="curve"/>
      <point x="499" y="522" type="line"/>
      <point x="463" y="579"/>
      <point x="426" y="606"/>
      <point x="354" y="606" type="curve" smooth="yes"/>
      <point x="232" y="606"/>
      <point x="166" y="507"/>
      <point x="166" y="350" type="curve" smooth="yes"/>
      <point x="166" y="193"/>
      <point x="232" y="94"/>
      <point x="354" y="94" type="curve" smooth="yes"/>
      <point x="427" y="94"/>
      <point x="472" y="124"/>
      <point x="508" y="181" type="curve"/>
    </contour>
  </outline>
</glyph>
<glyph name="D" format="1">
  <advance width="679"/>
  <unicode hex="0044"/>
  <outline>
    <contour>
      <point x="623" y="350" type="curve" smooth="yes"/>
      <point x="623" y="103"/>
      <point x="465" y="0"/>
      <point x="282" y="0" type="curve" smooth="yes"/>
      <point x="91" y="0" type="line"/>
      <point x="91" y="700" type="line"/>
      <point x="282" y="700" type="line" smooth="yes"/>
      <point x="470" y="700"/>
      <point x="623" y="597"/>
    </contour>
    <contour>
      <point x="516" y="350" type="curve" smooth="yes"/>
      <point x="516" y="497"/>
      <point x="448" y="598"/>
      <point x="282" y="598" type="curve" smooth="yes"/>
      <point x="196" y="598" type="line"/>
      <point x="196" y="102" type="line"/>
      <point x="282" y="102" type="line" smooth="yes"/>
      <point x="448" y="102"/>
      <point x="516" y="203"/>
    </contour>
  </outline>
</glyph>
<glyph name="E" format="1">
  <advance width="615"/>
  <unicode hex="0045"/>
  <outline>
    <contour>
      <point x="557" y="0" type="line"/>
      <point x="91" y="0" type="line"/>
      <point x="91" y="700" type="line"/>
      <point x="542" y="700" type="line"/>
      <point x="542" y="598" type="line"/>
      <point x="196" y="598" type="line"/>
      <point x="196" y="425" type="line"/>
      <point x="397" y="425" type="line"/>
      <point x="397" y="323" type="line"/>
      <point x="196" y="323" type="line"/>
      <point x="196" y="102" type="line"/>
      <point x="557" y="102" type="line"/>
    </contour>
  </outline>
</glyph>
<glyph name="F" format="1">
  <advance width="582"/>
  <unicode hex="0046"/>
  <outline>
    <contour>
      <point x="542" y="597" type="line"/>
      <point x="196" y="597" type="line"/>
      <point x="196" y="414" type="line"/>
      <point x="397" y="414" type="line"/>
      <point x="397" y="311" type="line"/>
      <point x="196" y="311" type="line"/>
      <point x="196" y="0" type="line"/>
      <point x="91" y="0" type="line"/>
      <point x="91" y="700" type="line"/>
      <point x="542" y="700" type="line"/>
    </contour>
  </outline>
</glyph>
<glyph name="G" format="1">
  <advance width="678"/>
  <unicode hex="0047"/>
  <outline>
    <contour>
      <point x="620" y="274" type="line" smooth="yes"/>
      <point x="620" y="94"/>
      <point x="510" y="-11"/>
      <point x="354" y="-11" type="curve" smooth="yes"/>
      <point x="173" y="-11"/>
      <point x="58" y="138"/>
      <point x="58" y="350" type="curve" smooth="yes"/>
      <point x="58" y="562"/>
      <point x="173" y="711"/>
      <point x="354" y="711" type="curve" smooth="yes"/>
      <point x="468" y="711"/>
      <point x="544" y="665"/>
      <point x="592" y="580" type="curve"/>
      <point x="500" y="523" type="line"/>
      <point x="464" y="580"/>
      <point x="426" y="606"/>
      <point x="354" y="606" type="curve" smooth="yes"/>
      <point x="232" y="606"/>
      <point x="165" y="507"/>
      <point x="165" y="350" type="curve" smooth="yes"/>
      <point x="165" y="193"/>
      <point x="232" y="94"/>
      <point x="354" y="94" type="curve" smooth="yes"/>
      <point x="468" y="94"/>
      <point x="513" y="169"/>
      <point x="513" y="251" type="curve" smooth="yes"/>
      <point x="513" y="254" type="line"/>
      <point x="399" y="254" type="line"/>
      <point x="399" y="355" type="line"/>
      <point x="620" y="355" type="line"/>
    </contour>
  </outline>
</glyph>
<glyph name="H" format="1">
  <advance width="714"/>
  <unicode hex="0048"/>
  <outline>
    <contour>
      <point x="623" y="0" type="line"/>
      <point x="518" y="0" type="line"/>
      <point x="518" y="312" type="line"/>
      <point x="196" y="312" type="line"/>
      <point x="196" y="0" type="line"/>
      <point x="91" y="0" type="line"/>
      <point x="91" y="700" type="line"/>
      <point x="196" y="700" type="line"/>
      <point x="196" y="417" type="line"/>
      <point x="518" y="417" type="line"/>
      <point x="518" y="700" type="line"/>
      <point x="623" y="700" type="line"/>
    </contour>
  </outline>
</glyph>
<glyph name="I" format="1">
  <advance width="297"/>
  <unicode hex="0049"/>
  <outline>
    <contour>
      <point x="201" y="0" type="line"/>
      <point x="96" y="0" type="line"/>
      <point x="96" y="700" type="line"/>
      <point x="201" y="700" type="line"/>
    </contour>
  </outline>
</glyph>
<glyph name="J" format="1">
  <advance width="603"/>
  <unicode hex="004A"/>
  <outline>
    <contour>
      <point x="517" y="276" type="line" smooth="yes"/>
      <point x="517" y="88"/>
      <point x="437" y="-11"/>
      <point x="268" y="-11" type="curve" smooth="yes"/>
      <point x="137" y="-11"/>
      <point x="59" y="58"/>
      <point x="24" y="175" type="curve"/>
      <point x="126" y="205" type="line"/>
      <point x="153" y="133"/>
      <point x="195" y="94"/>
      <point x="271" y="94" type="curve" smooth="yes"/>
      <point x="372" y="94"/>
      <point x="412" y="151"/>
      <point x="412" y="284" type="curve" smooth="yes"/>
      <point x="412" y="700" type="line"/>
      <point x="517" y="700" type="line"/>
    </contour>
  </outline>
</glyph>
<glyph name="K" format="1">
  <advance width="685"/>
  <unicode hex="004B"/>
  <outline>
    <contour>
      <point x="643" y="0" type="line"/>
      <point x="524" y="0" type="line"/>
      <point x="323" y="359" type="line"/>
      <point x="193" y="202" type="line"/>
      <point x="193" y="0" type="line"/>
      <point x="91" y="0" type="line"/>
      <point x="91" y="700" type="line"/>
      <point x="193" y="700" type="line"/>
      <point x="193" y="460" type="line" smooth="yes"/>
      <point x="193" y="434"/>
      <point x="192" y="358"/>
      <point x="191" y="336" type="curve"/>
      <point x="203" y="354"/>
      <point x="249" y="412"/>
      <point x="272" y="441" type="curve" smooth="yes"/>
      <point x="479" y="700" type="line"/>
      <point x="598" y="700" type="line"/>
      <point x="393" y="446" type="line"/>
    </contour>
  </outline>
</glyph>
<glyph name="L" format="1">
  <advance width="595"/>
  <unicode hex="004C"/>
  <outline>
    <contour>
      <point x="545" y="0" type="line"/>
      <point x="91" y="0" type="line"/>
      <point x="91" y="700" type="line"/>
      <point x="196" y="700" type="line"/>
      <point x="196" y="103" type="line"/>
      <point x="545" y="103" type="line"/>
    </contour>
  </outline>
</glyph>
<glyph name="M" format="1">
  <advance width="808"/>
  <unicode hex="004D"/>
  <outline>
    <contour>
      <point x="717" y="0" type="line"/>
      <point x="614" y="0" type="line"/>
      <point x="614" y="370" type="line" smooth="yes"/>
      <point x="614" y="412"/>
      <point x="615" y="473"/>
      <point x="616" y="493" type="curve"/>
      <point x="608" y="473"/>
      <point x="588" y="423"/>
      <point x="571" y="383" type="curve" smooth="yes"/>
      <point x="401" y="-11" type="line"/>
      <point x="233" y="383" type="line" smooth="yes"/>
      <point x="216" y="423"/>
      <point x="196" y="473"/>
      <point x="188" y="493" type="curve"/>
      <point x="189" y="473"/>
      <point x="190" y="412"/>
      <point x="190" y="370" type="curve" smooth="yes"/>
      <point x="190" y="0" type="line"/>
      <point x="91" y="0" type="line"/>
      <point x="91" y="700" type="line"/>
      <point x="199" y="700" type="line"/>
      <point x="356" y="327" type="line" smooth="yes"/>
      <point x="373" y="287"/>
      <point x="395" y="236"/>
      <point x="404" y="207" type="curve"/>
      <point x="414" y="236"/>
      <point x="434" y="286"/>
      <point x="451" y="327" type="curve" smooth="yes"/>
      <point x="605" y="700" type="line"/>
      <point x="717" y="700" type="line"/>
    </contour>
  </outline>
</glyph>
<glyph name="N" format="1">
  <advance width="714"/>
  <unicode hex="004E"/>
  <outline>
    <contour>
      <point x="623" y="0" type="line"/>
      <point x="523" y="0" type="line"/>
      <point x="244" y="439" type="line" smooth="yes"/>
      <point x="227" y="465"/>
      <point x="203" y="507"/>
      <point x="192" y="525" type="curve"/>
      <point x="192" y="499"/>
      <point x="193" y="402"/>
      <point x="193" y="363" type="curve" smooth="yes"/>
      <point x="193" y="0" type="line"/>
      <point x="91" y="0" type="line"/>
      <point x="91" y="700" type="line"/>
      <point x="198" y="700" type="line"/>
      <point x="464" y="273" type="line" smooth="yes"/>
      <point x="482" y="244"/>
      <point x="512" y="192"/>
      <point x="522" y="174" type="curve"/>
      <point x="522" y="200"/>
      <point x="521" y="300"/>
      <point x="521" y="339" type="curve" smooth="yes"/>
      <point x="521" y="700" type="line"/>
      <point x="623" y="700" type="line"/>
    </contour>
  </outline>
</glyph>
<glyph name="O" format="1">
  <advance width="711"/>
  <unicode hex="004F"/>
  <outline>
    <contour>
      <point x="654" y="351" type="curve" smooth="yes"/>
      <point x="654" y="133"/>
      <point x="532" y="-11"/>
      <point x="354" y="-11" type="curve" smooth="yes"/>
      <point x="177" y="-11"/>
      <point x="57" y="131"/>
      <point x="57" y="349" type="curve" smooth="yes"/>
      <point x="57" y="567"/>
      <point x="179" y="711"/>
      <point x="356" y="711" type="curve" smooth="yes"/>
      <point x="534" y="711"/>
      <point x="654" y="569"/>
    </contour>
    <contour>
      <point x="547" y="349" type="curve" smooth="yes"/>
      <point x="547" y="508"/>
      <point x="465" y="607"/>
      <point x="353" y="607" type="curve" smooth="yes"/>
      <point x="242" y="607"/>
      <point x="164" y="510"/>
      <point x="164" y="351" type="curve" smooth="yes"/>
      <point x="164" y="192"/>
      <point x="245" y="93"/>
      <point x="357" y="93" type="curve" smooth="yes"/>
      <point x="468" y="93"/>
      <point x="547" y="190"/>
    </contour>
  </outline>
</glyph>
<glyph name="P" format="1">
  <advance width="653"/>
  <unicode hex="0050"/>
  <outline>
    <contour>
      <point x="609" y="481" type="curve" smooth="yes"/>
      <point x="609" y="337"/>
      <point x="513" y="261"/>
      <point x="377" y="261" type="curve" smooth="yes"/>
      <point x="194" y="261" type="line"/>
      <point x="194" y="0" type="line"/>
      <point x="91" y="0" type="line"/>
      <point x="91" y="700" type="line"/>
      <point x="384" y="700" type="line" smooth="yes"/>
      <point x="513" y="700"/>
      <point x="609" y="626"/>
    </contour>
    <contour>
      <point x="502" y="481" type="curve" smooth="yes"/>
      <point x="502" y="558"/>
      <point x="455" y="601"/>
      <point x="382" y="601" type="curve" smooth="yes"/>
      <point x="194" y="601" type="line"/>
      <point x="194" y="360" type="line"/>
      <point x="382" y="360" type="line" smooth="yes"/>
      <point x="462" y="360"/>
      <point x="502" y="406"/>
    </contour>
  </outline>
</glyph>
<glyph name="Q" format="1">
  <advance width="709"/>
  <unicode hex="0051"/>
  <outline>
    <contour>
      <point x="651" y="350" type="curve" smooth="yes"/>
      <point x="651" y="227"/>
      <point x="610" y="126"/>
      <point x="543" y="63" type="curve"/>
      <point x="590" y="-10" type="line"/>
      <point x="504" y="-64" type="line"/>
      <point x="457" y="8" type="line"/>
      <point x="426" y="-4"/>
      <point x="391" y="-11"/>
      <point x="354" y="-11" type="curve" smooth="yes"/>
      <point x="173" y="-11"/>
      <point x="58" y="138"/>
      <point x="58" y="350" type="curve" smooth="yes"/>
      <point x="58" y="562"/>
      <point x="173" y="711"/>
      <point x="354" y="711" type="curve" smooth="yes"/>
      <point x="536" y="711"/>
      <point x="651" y="562"/>
    </contour>
    <contour>
      <point x="544" y="350" type="curve" smooth="yes"/>
      <point x="544" y="507"/>
      <point x="477" y="606"/>
      <point x="354" y="606" type="curve" smooth="yes"/>
      <point x="232" y="606"/>
      <point x="165" y="507"/>
      <point x="165" y="350" type="curve" smooth="yes"/>
      <point x="165" y="193"/>
      <point x="232" y="92"/>
      <point x="354" y="92" type="curve" smooth="yes"/>
      <point x="373" y="92"/>
      <point x="387" y="94"/>
      <point x="401" y="97" type="curve"/>
      <point x="350" y="176" type="line"/>
      <point x="436" y="230" type="line"/>
      <point x="487" y="150" type="line"/>
      <point x="527" y="194"/>
      <point x="544" y="263"/>
    </contour>
  </outline>
</glyph>
<glyph name="R" format="1">
  <advance width="694"/>
  <unicode hex="0052"/>
  <outline>
    <contour>
      <point x="623" y="491" type="curve" smooth="yes"/>
      <point x="623" y="379"/>
      <point x="564" y="310"/>
      <point x="469" y="286" type="curve"/>
      <point x="612" y="0" type="line"/>
      <point x="491" y="0" type="line"/>
      <point x="352" y="277" type="line"/>
      <point x="194" y="277" type="line"/>
      <point x="194" y="0" type="line"/>
      <point x="91" y="0" type="line"/>
      <point x="91" y="700" type="line"/>
      <point x="398" y="700" type="line" smooth="yes"/>
      <point x="520" y="700"/>
      <point x="623" y="635"/>
    </contour>
    <contour>
      <point x="517" y="488" type="curve" smooth="yes"/>
      <point x="517" y="561"/>
      <point x="469" y="601"/>
      <point x="398" y="601" type="curve" smooth="yes"/>
      <point x="194" y="601" type="line"/>
      <point x="194" y="376" type="line"/>
      <point x="398" y="376" type="line" smooth="yes"/>
      <point x="468" y="376"/>
      <point x="517" y="412"/>
    </contour>
  </outline>
</glyph>
<glyph name="S" format="1">
  <advance width="626"/>
  <unicode hex="0053"/>
  <outline>
    <contour>
      <point x="560" y="201" type="curve" smooth="yes"/>
      <point x="560" y="75"/>
      <point x="480" y="-11"/>
      <point x="301" y="-11" type="curve" smooth="yes"/>
      <point x="199" y="-11"/>
      <point x="111" y="33"/>
      <point x="52" y="102" type="curve"/>
      <point x="127" y="175" type="line"/>
      <point x="174" y="124"/>
      <point x="243" y="92"/>
      <point x="309" y="92" type="curve" smooth="yes"/>
      <point x="407" y="92"/>
      <point x="454" y="126"/>
      <point x="454" y="194" type="curve" smooth="yes"/>
      <point x="454" y="248"/>
      <point x="413" y="275"/>
      <point x="296" y="310" type="curve" smooth="yes"/>
      <point x="148" y="354"/>
      <point x="77" y="391"/>
      <point x="77" y="516" type="curve" smooth="yes"/>
      <point x="77" y="637"/>
      <point x="179" y="711"/>
      <point x="308" y="711" type="curve" smooth="yes"/>
      <point x="403" y="711"/>
      <point x="475" y="676"/>
      <point x="537" y="616" type="curve"/>
      <point x="463" y="541" type="line"/>
      <point x="419" y="586"/>
      <point x="369" y="608"/>
      <point x="300" y="608" type="curve" smooth="yes"/>
      <point x="218" y="608"/>
      <point x="183" y="568"/>
      <point x="183" y="521" type="curve" smooth="yes"/>
      <point x="183" y="472"/>
      <point x="215" y="448"/>
      <point x="336" y="412" type="curve" smooth="yes"/>
      <point x="474" y="370"/>
      <point x="560" y="326"/>
    </contour>
  </outline>
</glyph>
<glyph name="T" format="1">
  <advance width="607"/>
  <unicode hex="0054"/>
  <outline>
    <contour>
      <point x="560" y="597" type="line"/>
      <point x="356" y="597" type="line"/>
      <point x="356" y="0" type="line"/>
      <point x="251" y="0" type="line"/>
      <point x="251" y="597" type="line"/>
      <point x="47" y="597" type="line"/>
      <point x="47" y="700" type="line"/>
      <point x="560" y="700" type="line"/>
    </contour>
  </outline>
</glyph>
<glyph name="U" format="1">
  <advance width="704"/>
  <unicode hex="0055"/>
  <outline>
    <contour>
      <point x="618" y="292" type="line" smooth="yes"/>
      <point x="618" y="96"/>
      <point x="523" y="-11"/>
      <point x="349" y="-11" type="curve" smooth="yes"/>
      <point x="176" y="-11"/>
      <point x="86" y="101"/>
      <point x="86" y="294" type="curve" smooth="yes"/>
      <point x="86" y="700" type="line"/>
      <point x="191" y="700" type="line"/>
      <point x="191" y="297" type="line" smooth="yes"/>
      <point x="191" y="165"/>
      <point x="246" y="94"/>
      <point x="351" y="94" type="curve" smooth="yes"/>
      <point x="461" y="94"/>
      <point x="513" y="162"/>
      <point x="513" y="290" type="curve" smooth="yes"/>
      <point x="513" y="700" type="line"/>
      <point x="618" y="700" type="line"/>
    </contour>
  </outline>
</glyph>
<glyph name="V" format="1">
  <advance width="688"/>
  <unicode hex="0056"/>
  <outline>
    <contour>
      <point x="641" y="700" type="line"/>
      <point x="401" y="0" type="line"/>
      <point x="290" y="0" type="line"/>
      <point x="47" y="700" type="line"/>
      <point x="161" y="700" type="line"/>
      <point x="307" y="254" type="line" smooth="yes"/>
      <point x="320" y="213"/>
      <point x="340" y="151"/>
      <point x="346" y="126" type="curve"/>
      <point x="352" y="151"/>
      <point x="372" y="214"/>
      <point x="385" y="255" type="curve" smooth="yes"/>
      <point x="529" y="700" type="line"/>
    </contour>
  </outline>
</glyph>
<glyph name="W" format="1">
  <advance width="863"/>
  <unicode hex="0057"/>
  <outline>
    <contour>
      <point x="813" y="700" type="line"/>
      <point x="670" y="0" type="line"/>
      <point x="564" y="0" type="line"/>
      <point x="455" y="452" type="line" smooth="yes"/>
      <point x="449" y="476"/>
      <point x="438" y="528"/>
      <point x="435" y="545" type="curve"/>
      <point x="432" y="528"/>
      <point x="421" y="476"/>
      <point x="415" y="452" type="curve" smooth="yes"/>
      <point x="301" y="0" type="line"/>
      <point x="197" y="0" type="line"/>
      <point x="54" y="700" type="line"/>
      <point x="160" y="700" type="line"/>
      <point x="244" y="258" type="line" smooth="yes"/>
      <point x="248" y="237"/>
      <point x="257" y="189"/>
      <point x="260" y="166" type="curve"/>
      <point x="264" y="189"/>
      <point x="274" y="236"/>
      <point x="279" y="257" type="curve" smooth="yes"/>
      <point x="391" y="700" type="line"/>
      <point x="481" y="700" type="line"/>
      <point x="595" y="247" type="line" smooth="yes"/>
      <point x="600" y="228"/>
      <point x="608" y="191"/>
      <point x="612" y="166" type="curve"/>
      <point x="617" y="192"/>
      <point x="623" y="231"/>
      <point x="626" y="248" type="curve" smooth="yes"/>
      <point x="711" y="700" type="line"/>
    </contour>
  </outline>
</glyph>
<glyph name="X" format="1">
  <advance width="659"/>
  <unicode hex="0058"/>
  <outline>
    <contour>
      <point x="614" y="0" type="line"/>
      <point x="489" y="0" type="line"/>
      <point x="410" y="136" type="line" smooth="yes"/>
      <point x="385" y="179"/>
      <point x="346" y="252"/>
      <point x="333" y="278" type="curve"/>
      <point x="321" y="252"/>
      <point x="282" y="181"/>
      <point x="256" y="136" type="curve" smooth="yes"/>
      <point x="178" y="0" type="line"/>
      <point x="55" y="0" type="line"/>
      <point x="272" y="361" type="line"/>
      <point x="69" y="700" type="line"/>
      <point x="194" y="700" type="line"/>
      <point x="258" y="587" type="line" smooth="yes"/>
      <point x="282" y="544"/>
      <point x="322" y="470"/>
      <point x="335" y="444" type="curve"/>
      <point x="348" y="470"/>
      <point x="386" y="542"/>
      <point x="412" y="587" type="curve" smooth="yes"/>
      <point x="477" y="700" type="line"/>
      <point x="600" y="700" type="line"/>
      <point x="397" y="362" type="line"/>
    </contour>
  </outline>
</glyph>
<glyph name="Y" format="1">
  <advance width="689"/>
  <unicode hex="0059"/>
  <outline>
    <contour>
      <point x="648" y="700" type="line"/>
      <point x="397" y="277" type="line"/>
      <point x="397" y="0" type="line"/>
      <point x="292" y="0" type="line"/>
      <point x="292" y="277" type="line"/>
      <point x="41" y="700" type="line"/>
      <point x="164" y="700" type="line"/>
      <point x="273" y="507" type="line" smooth="yes"/>
      <point x="297" y="464"/>
      <point x="333" y="394"/>
      <point x="345" y="368" type="curve"/>
      <point x="357" y="394"/>
      <point x="392" y="461"/>
      <point x="417" y="506" type="curve" smooth="yes"/>
      <point x="527" y="700" type="line"/>
    </contour>
  </outline>
</glyph>
<glyph name="Z" format="1">
  <advance width="664"/>
  <unicode hex="005A"/>
  <outline>
    <contour>
      <point x="592" y="0" type="line"/>
      <point x="60" y="0" type="line"/>
      <point x="60" y="102" type="line"/>
      <point x="402" y="515" type="line" smooth="yes"/>
      <point x="424" y="542"/>
      <point x="463" y="587"/>
      <point x="481" y="605" type="curve"/>
      <point x="453" y="604"/>
      <point x="381" y="603"/>
      <point x="340" y="603" type="curve" smooth="yes"/>
      <point x="80" y="603" type="line"/>
      <point x="80" y="700" type="line"/>
      <point x="592" y="700" type="line"/>
      <point x="592" y="598" type="line"/>
      <point x="254" y="185" type="line" smooth="yes"/>
      <point x="232" y="158"/>
      <point x="193" y="113"/>
      <point x="175" y="95" type="curve"/>
      <point x="203" y="96"/>
      <point x="275" y="97"/>
      <point x="316" y="97" type="curve" smooth="yes"/>
      <point x="592" y="97" type="line"/>
    </contour>
  </outline>
</glyph>
<glyph name="bracketleft" format="1">
  <advance width="380"/>
  <unicode hex="005B"/>
  <outline>
    <contour>
      <point x="317" y="-110" type="line"/>
      <point x="95" y="-110" type="line"/>
      <point x="95" y="700" type="line"/>
      <point x="317" y="700" type="line"/>
      <point x="317" y="615" type="line"/>
      <point x="194" y="615" type="line"/>
      <point x="194" y="-25" type="line"/>
      <point x="317" y="-25" type="line"/>
    </contour>
  </outline>
</glyph>
<glyph name="backslash" format="1">
  <advance width="446"/>
  <unicode hex="005C"/>
  <outline>
    <contour>
      <point x="430" y="-90" type="line"/>
      <point x="327" y="-90" type="line"/>
      <point x="16" y="790" type="line"/>
      <point x="119" y="790" type="line"/>
    </contour>
  </outline>
</glyph>
<glyph name="bracketright" format="1">
  <advance width="380"/>
  <unicode hex="005D"/>
  <outline>
    <contour>
      <point x="285" y="-110" type="line"/>
      <point x="63" y="-110" type="line"/>
      <point x="63" y="-25" type="line"/>
      <point x="186" y="-25" type="line"/>
      <point x="186" y="615" type="line"/>
      <point x="63" y="615" type="line"/>
      <point x="63" y="700" type="line"/>
      <point x="285" y="700" type="line"/>
    </contour>
  </outline>
</glyph>
<glyph name="asciicircum" format="1">
  <advance width="578"/>
  <unicode hex="005E"/>
  <outline>
    <contour>
      <point x="531" y="382" type="line"/>
      <point x="416" y="382" type="line"/>
      <point x="288" y="591" type="line"/>
      <point x="160" y="382" type="line"/>
      <point x="47" y="382" type="line"/>
      <point x="249" y="700" type="line"/>
      <point x="329" y="700" type="line"/>
    </contour>
  </outline>
</glyph>
<glyph name="a" format="1">
  <advance width="550"/>
  <unicode hex="0061"/>
  <outline>
    <contour>
      <point x="478" y="0" type="line"/>
      <point x="377" y="0" type="line"/>
      <point x="377" y="52" type="line"/>
      <point x="341" y="16"/>
      <point x="290" y="-11"/>
      <point x="233" y="-11" type="curve" smooth="yes"/>
      <point x="148" y="-11"/>
      <point x="51" y="37"/>
      <point x="51" y="166" type="curve" smooth="yes"/>
      <point x="51" y="283"/>
      <point x="141" y="336"/>
      <point x="260" y="336" type="curve" smooth="yes"/>
      <point x="309" y="336"/>
      <point x="348" y="329"/>
      <point x="377" y="316" type="curve"/>
      <point x="377" y="355" type="line" smooth="yes"/>
      <point x="377" y="412"/>
      <point x="342" y="444"/>
      <point x="278" y="444" type="curve" smooth="yes"/>
      <point x="224" y="444"/>
      <point x="182" y="434"/>
      <point x="141" y="411" type="curve"/>
      <point x="101" y="489" type="line"/>
      <point x="151" y="520"/>
      <point x="207" y="536"/>
      <point x="281" y="536" type="curve" smooth="yes"/>
      <point x="398" y="536"/>
      <point x="478" y="479"/>
      <point x="478" y="360" type="curve" smooth="yes"/>
    </contour>
    <contour>
      <point x="377" y="149" type="curve"/>
      <point x="377" y="224" type="line"/>
      <point x="349" y="238"/>
      <point x="313" y="247"/>
      <point x="257" y="247" type="curve" smooth="yes"/>
      <point x="191" y="247"/>
      <point x="149" y="217"/>
      <point x="149" y="169" type="curve" smooth="yes"/>
      <point x="149" y="117"/>
      <point x="182" y="82"/>
      <point x="250" y="82" type="curve" smooth="yes"/>
      <point x="305" y="82"/>
      <point x="353" y="116"/>
    </contour>
  </outline>
</glyph>
<glyph name="c" format="1">
  <advance width="522"/>
  <unicode hex="0063"/>
  <outline>
    <contour>
      <point x="467" y="447" type="curve"/>
      <point x="406" y="374" type="line"/>
      <point x="363" y="418"/>
      <point x="325" y="438"/>
      <point x="278" y="438" type="curve" smooth="yes"/>
      <point x="203" y="438"/>
      <point x="155" y="371"/>
      <point x="155" y="264" type="curve" smooth="yes"/>
      <point x="155" y="161"/>
      <point x="199" y="87"/>
      <point x="281" y="87" type="curve" smooth="yes"/>
      <point x="330" y="87"/>
      <point x="359" y="109"/>
      <point x="400" y="152" type="curve"/>
      <point x="466" y="87" type="line"/>
      <point x="425" y="35"/>
      <point x="373" y="-11"/>
      <point x="278" y="-11" type="curve" smooth="yes"/>
      <point x="150" y="-11"/>
      <point x="51" y="97"/>
      <point x="51" y="261" type="curve" smooth="yes"/>
      <point x="51" y="435"/>
      <point x="153" y="536"/>
      <point x="281" y="536" type="curve" smooth="yes"/>
      <point x="358" y="536"/>
      <point x="418" y="505"/>
    </contour>
  </outline>
</glyph>
<glyph name="d" format="1">
  <advance width="570"/>
  <unicode hex="0064"/>
  <outline>
    <contour>
      <point x="494" y="0" type="line"/>
      <point x="392" y="0" type="line"/>
      <point x="392" y="50" type="line"/>
      <point x="354" y="15"/>
      <point x="310" y="-11"/>
      <point x="255" y="-11" type="curve" smooth="yes"/>
      <point x="142" y="-11"/>
      <point x="53" y="71"/>
      <point x="53" y="271" type="curve" smooth="yes"/>
      <point x="53" y="451"/>
      <point x="151" y="536"/>
      <point x="260" y="536" type="curve" smooth="yes"/>
      <point x="313" y="536"/>
      <point x="363" y="508"/>
      <point x="392" y="476" type="curve"/>
      <point x="392" y="676" type="line"/>
      <point x="494" y="729" type="line"/>
    </contour>
    <contour>
      <point x="393" y="151" type="curve"/>
      <point x="393" y="372" type="line"/>
      <point x="370" y="403"/>
      <point x="322" y="441"/>
      <point x="270" y="441" type="curve" smooth="yes"/>
      <point x="196" y="441"/>
      <point x="156" y="385"/>
      <point x="156" y="274" type="curve" smooth="yes"/>
      <point x="156" y="142"/>
      <point x="198" y="84"/>
      <point x="274" y="84" type="curve" smooth="yes"/>
      <point x="323" y="84"/>
      <point x="366" y="117"/>
    </contour>
  </outline>
</glyph>
<glyph name="e" format="1">
  <advance width="554"/>
  <unicode hex="0065"/>
  <outline>
    <contour>
      <point x="502" y="273" type="curve" smooth="yes"/>
      <point x="502" y="254"/>
      <point x="500" y="237"/>
      <point x="499" y="226" type="curve"/>
      <point x="152" y="226" type="line"/>
      <point x="163" y="125"/>
      <point x="220" y="82"/>
      <point x="284" y="82" type="curve" smooth="yes"/>
      <point x="328" y="82"/>
      <point x="363" y="98"/>
      <point x="398" y="124" type="curve"/>
      <point x="459" y="58" type="line"/>
      <point x="413" y="14"/>
      <point x="358" y="-11"/>
      <point x="278" y="-11" type="curve" smooth="yes"/>
      <point x="155" y="-11"/>
      <point x="51" y="88"/>
      <point x="51" y="262" type="curve" smooth="yes"/>
      <point x="51" y="440"/>
      <point x="145" y="536"/>
      <point x="281" y="536" type="curve" smooth="yes"/>
      <point x="430" y="536"/>
      <point x="502" y="415"/>
    </contour>
    <contour>
      <point x="398" y="311" type="line"/>
      <point x="393" y="383"/>
      <point x="359" y="443"/>
      <point x="274" y="443" type="curve" smooth="yes"/>
      <point x="205" y="443"/>
      <point x="163" y="395"/>
      <point x="154" y="311" type="curve"/>
    </contour>
  </outline>
</glyph>
<glyph name="f" format="1">
  <advance width="362"/>
  <unicode hex="0066"/>
  <outline>
    <contour>
      <point x="322" y="626" type="line"/>
      <point x="298" y="633"/>
      <point x="280" y="636"/>
      <point x="262" y="636" type="curve" smooth="yes"/>
      <point x="228" y="636"/>
      <point x="214" y="623"/>
      <point x="214" y="585" type="curve" smooth="yes"/>
      <point x="214" y="525" type="line"/>
      <point x="311" y="525" type="line"/>
      <point x="311" y="429" type="line"/>
      <point x="214" y="429" type="line"/>
      <point x="214" y="0" type="line"/>
      <point x="111" y="0" type="line"/>
      <point x="111" y="429" type="line"/>
      <point x="43" y="429" type="line"/>
      <point x="43" y="525" type="line"/>
      <point x="111" y="525" type="line"/>
      <point x="111" y="594" type="line" smooth="yes"/>
      <point x="111" y="690"/>
      <point x="170" y="726"/>
      <point x="244" y="726" type="curve" smooth="yes"/>
      <point x="271" y="726"/>
      <point x="300" y="722"/>
      <point x="322" y="716" type="curve"/>
    </contour>
  </outline>
</glyph>
<glyph name="g" format="1">
  <advance width="570"/>
  <unicode hex="0067"/>
  <outline>
    <contour>
      <point x="494" y="50" type="line" smooth="yes"/>
      <point x="494" y="-110"/>
      <point x="436" y="-187"/>
      <point x="246" y="-193" type="curve"/>
      <point x="211" y="-115" type="line"/>
      <point x="359" y="-108"/>
      <point x="391" y="-68"/>
      <point x="391" y="41" type="curve" smooth="yes"/>
      <point x="391" y="50" type="line"/>
      <point x="353" y="15"/>
      <point x="310" y="-11"/>
      <point x="255" y="-11" type="curve" smooth="yes"/>
      <point x="143" y="-11"/>
      <point x="53" y="71"/>
      <point x="53" y="271" type="curve" smooth="yes"/>
      <point x="53" y="451"/>
      <point x="152" y="536"/>
      <point x="260" y="536" type="curve" smooth="yes"/>
      <point x="313" y="536"/>
      <point x="363" y="508"/>
      <point x="391" y="476" type="curve"/>
      <point x="391" y="525" type="line"/>
      <point x="494" y="525" type="line"/>
    </contour>
    <contour>
      <point x="393" y="151" type="curve"/>
      <point x="393" y="372" type="line"/>
      <point x="370" y="403"/>
      <point x="322" y="441"/>
      <point x="270" y="441" type="curve" smooth="yes"/>
      <point x="196" y="441"/>
      <point x="156" y="385"/>
      <point x="156" y="274" type="curve" smooth="yes"/>
      <point x="156" y="142"/>
      <point x="198" y="84"/>
      <point x="274" y="84" type="curve" smooth="yes"/>
      <point x="323" y="84"/>
      <point x="366" y="117"/>
    </contour>
  </outline>
</glyph>
<glyph name="h" format="1">
  <advance width="570"/>
  <unicode hex="0068"/>
  <outline>
    <contour>
      <point x="498" y="0" type="line"/>
      <point x="395" y="0" type="line"/>
      <point x="395" y="297" type="line" smooth="yes"/>
      <point x="395" y="403"/>
      <point x="355" y="441"/>
      <point x="287" y="441" type="curve" smooth="yes"/>
      <point x="218" y="441"/>
      <point x="179" y="392"/>
      <point x="179" y="307" type="curve" smooth="yes"/>
      <point x="179" y="0" type="line"/>
      <point x="76" y="0" type="line"/>
      <point x="76" y="675" type="line"/>
      <point x="179" y="729" type="line"/>
      <point x="179" y="475" type="line"/>
      <point x="205" y="513"/>
      <point x="257" y="536"/>
      <point x="311" y="536" type="curve" smooth="yes"/>
      <point x="433" y="536"/>
      <point x="498" y="456"/>
      <point x="498" y="301" type="curve" smooth="yes"/>
    </contour>
  </outline>
</glyph>
<glyph name="i" format="1">
  <advance width="265"/>
  <unicode hex="0069"/>
  <outline>
    <contour>
      <point x="199" y="659" type="curve" smooth="yes"/>
      <point x="199" y="623"/>
      <point x="169" y="593"/>
      <point x="133" y="593" type="curve" smooth="yes"/>
      <point x="96" y="593"/>
      <point x="66" y="623"/>
      <point x="66" y="659" type="curve" smooth="yes"/>
      <point x="66" y="696"/>
      <point x="96" y="726"/>
      <point x="133" y="726" type="curve" smooth="yes"/>
      <point x="169" y="726"/>
      <point x="199" y="696"/>
    </contour>
    <contour>
      <point x="184" y="0" type="line"/>
      <point x="81" y="0" type="line"/>
      <point x="81" y="525" type="line"/>
      <point x="184" y="525" type="line"/>
    </contour>
  </outline>
</glyph>
<glyph name="j" format="1">
  <advance width="265"/>
  <unicode hex="006A"/>
  <outline>
    <contour>
      <point x="199" y="659" type="curve" smooth="yes"/>
      <point x="199" y="623"/>
      <point x="169" y="593"/>
      <point x="133" y="593" type="curve" smooth="yes"/>
      <point x="96" y="593"/>
      <point x="66" y="623"/>
      <point x="66" y="659" type="curve" smooth="yes"/>
      <point x="66" y="696"/>
      <point x="96" y="726"/>
      <point x="133" y="726" type="curve" smooth="yes"/>
      <point x="169" y="726"/>
      <point x="199" y="696"/>
    </contour>
    <contour>
      <point x="184" y="24" type="line" smooth="yes"/>
      <point x="184" y="-108"/>
      <point x="151" y="-163"/>
      <point x="6" y="-193" type="curve"/>
      <point x="-29" y="-115" type="line"/>
      <point x="67" y="-88"/>
      <point x="81" y="-68"/>
      <point x="81" y="22" type="curve" smooth="yes"/>
      <point x="81" y="525" type="line"/>
      <point x="184" y="525" type="line"/>
    </contour>
  </outline>
</glyph>
<glyph name="k" format="1">
  <advance width="529"/>
  <unicode hex="006B"/>
  <outline>
    <contour>
      <point x="487" y="0" type="line"/>
      <point x="375" y="0" type="line"/>
      <point x="259" y="261" type="line"/>
      <point x="179" y="155" type="line"/>
      <point x="179" y="0" type="line"/>
      <point x="76" y="0" type="line"/>
      <point x="76" y="675" type="line"/>
      <point x="179" y="729" type="line"/>
      <point x="179" y="398" type="line" smooth="yes"/>
      <point x="179" y="366"/>
      <point x="178" y="312"/>
      <point x="178" y="286" type="curve"/>
      <point x="192" y="307"/>
      <point x="218" y="347"/>
      <point x="236" y="372" type="curve" smooth="yes"/>
      <point x="345" y="525" type="line"/>
      <point x="462" y="525" type="line"/>
      <point x="329" y="349" type="line"/>
    </contour>
  </outline>
</glyph>
<glyph name="l" format="1">
  <advance width="265"/>
  <unicode hex="006C"/>
  <outline>
    <contour>
      <point x="184" y="0" type="line"/>
      <point x="81" y="0" type="line"/>
      <point x="81" y="675" type="line"/>
      <point x="184" y="729" type="line"/>
    </contour>
  </outline>
</glyph>
<glyph name="m" format="1">
  <advance width="861"/>
  <unicode hex="006D"/>
  <outline>
    <contour>
      <point x="789" y="0" type="line"/>
      <point x="686" y="0" type="line"/>
      <point x="686" y="297" type="line" smooth="yes"/>
      <point x="686" y="403"/>
      <point x="653" y="441"/>
      <point x="585" y="441" type="curve" smooth="yes"/>
      <point x="516" y="441"/>
      <point x="484" y="392"/>
      <point x="484" y="307" type="curve" smooth="yes"/>
      <point x="484" y="0" type="line"/>
      <point x="381" y="0" type="line"/>
      <point x="381" y="297" type="line" smooth="yes"/>
      <point x="381" y="403"/>
      <point x="348" y="441"/>
      <point x="280" y="441" type="curve" smooth="yes"/>
      <point x="211" y="441"/>
      <point x="179" y="392"/>
      <point x="179" y="307" type="curve" smooth="yes"/>
      <point x="179" y="0" type="line"/>
      <point x="76" y="0" type="line"/>
      <point x="76" y="525" type="line"/>
      <point x="179" y="525" type="line"/>
      <point x="179" y="475" type="line"/>
      <point x="205" y="513"/>
      <point x="250" y="536"/>
      <point x="304" y="536" type="curve" smooth="yes"/>
      <point x="375" y="536"/>
      <point x="420" y="509"/>
      <point x="448" y="459" type="curve"/>
      <point x="486" y="506"/>
      <point x="527" y="536"/>
      <point x="609" y="536" type="curve" smooth="yes"/>
      <point x="731" y="536"/>
      <point x="789" y="456"/>
      <point x="789" y="301" type="curve" smooth="yes"/>
    </contour>
  </outline>
</glyph>
<glyph name="n" format="1">
  <advance width="570"/>
  <unicode hex="006E"/>
  <outline>
    <contour>
      <point x="498" y="0" type="line"/>
      <point x="395" y="0" type="line"/>
      <point x="395" y="297" type="line" smooth="yes"/>
      <point x="395" y="403"/>
      <point x="355" y="441"/>
      <point x="287" y="441" type="curve" smooth="yes"/>
      <point x="218" y="441"/>
      <point x="179" y="392"/>
      <point x="179" y="307" type="curve" smooth="yes"/>
      <point x="179" y="0" type="line"/>
      <point x="76" y="0" type="line"/>
      <point x="76" y="525" type="line"/>
      <point x="179" y="525" type="line"/>
      <point x="179" y="475" type="line"/>
      <point x="205" y="513"/>
      <point x="257" y="536"/>
      <point x="311" y="536" type="curve" smooth="yes"/>
      <point x="433" y="536"/>
      <point x="498" y="456"/>
      <point x="498" y="301" type="curve" smooth="yes"/>
    </contour>
  </outline>
</glyph>
<glyph name="o" format="1">
  <advance width="570"/>
  <unicode hex="006F"/>
  <outline>
    <contour>
      <point x="519" y="265" type="curve" smooth="yes"/>
      <point x="519" y="91"/>
      <point x="417" y="-11"/>
      <point x="282" y="-11" type="curve" smooth="yes"/>
      <point x="150" y="-11"/>
      <point x="51" y="98"/>
      <point x="51" y="262" type="curve" smooth="yes"/>
      <point x="51" y="434"/>
      <point x="153" y="536"/>
      <point x="285" y="536" type="curve" smooth="yes"/>
      <point x="419" y="536"/>
      <point x="519" y="429"/>
    </contour>
    <contour>
      <point x="415" y="262" type="curve" smooth="yes"/>
      <point x="415" y="369"/>
      <point x="364" y="438"/>
      <point x="281" y="438" type="curve" smooth="yes"/>
      <point x="203" y="438"/>
      <point x="155" y="369"/>
      <point x="155" y="265" type="curve" smooth="yes"/>
      <point x="155" y="150"/>
      <point x="208" y="87"/>
      <point x="286" y="87" type="curve" smooth="yes"/>
      <point x="364" y="87"/>
      <point x="415" y="166"/>
    </contour>
  </outline>
</glyph>
<glyph name="r" format="1">
  <advance width="418"/>
  <unicode hex="0072"/>
  <outline>
    <contour>
      <point x="388" y="514" type="curve"/>
      <point x="361" y="416" type="line"/>
      <point x="339" y="428"/>
      <point x="316" y="435"/>
      <point x="282" y="435" type="curve" smooth="yes"/>
      <point x="217" y="435"/>
      <point x="179" y="389"/>
      <point x="179" y="300" type="curve" smooth="yes"/>
      <point x="179" y="0" type="line"/>
      <point x="76" y="0" type="line"/>
      <point x="76" y="525" type="line"/>
      <point x="179" y="525" type="line"/>
      <point x="179" y="475" type="line"/>
      <point x="203" y="510"/>
      <point x="247" y="536"/>
      <point x="299" y="536" type="curve" smooth="yes"/>
      <point x="341" y="536"/>
      <point x="367" y="528"/>
    </contour>
  </outline>
</glyph>
<glyph name="s" format="1">
  <advance width="499"/>
  <unicode hex="0073"/>
  <outline>
    <contour>
      <point x="443" y="144" type="curve" smooth="yes"/>
      <point x="443" y="28"/>
      <point x="349" y="-11"/>
      <point x="246" y="-11" type="curve" smooth="yes"/>
      <point x="175" y="-11"/>
      <point x="98" y="17"/>
      <point x="45" y="56" type="curve"/>
      <point x="92" y="134" type="line"/>
      <point x="141" y="100"/>
      <point x="196" y="82"/>
      <point x="245" y="82" type="curve" smooth="yes"/>
      <point x="310" y="82"/>
      <point x="341" y="103"/>
      <point x="341" y="140" type="curve" smooth="yes"/>
      <point x="341" y="180"/>
      <point x="295" y="199"/>
      <point x="219" y="228" type="curve" smooth="yes"/>
      <point x="106" y="272"/>
      <point x="65" y="310"/>
      <point x="65" y="393" type="curve" smooth="yes"/>
      <point x="65" y="487"/>
      <point x="139" y="536"/>
      <point x="244" y="536" type="curve" smooth="yes"/>
      <point x="310" y="536"/>
      <point x="375" y="512"/>
      <point x="422" y="478" type="curve"/>
      <point x="377" y="399" type="line"/>
      <point x="334" y="429"/>
      <point x="291" y="444"/>
      <point x="241" y="444" type="curve" smooth="yes"/>
      <point x="191" y="444"/>
      <point x="169" y="424"/>
      <point x="169" y="396" type="curve" smooth="yes"/>
      <point x="169" y="370"/>
      <point x="187" y="351"/>
      <point x="266" y="320" type="curve" smooth="yes"/>
      <point x="383" y="275"/>
      <point x="443" y="243"/>
    </contour>
  </outline>
</glyph>
<glyph name="t" format="1">
  <advance width="403"/>
  <unicode hex="0074"/>
  <outline>
    <contour>
      <point x="339" y="104" type="curve"/>
      <point x="327" y="13" type="line"/>
      <point x="302" y="-1"/>
      <point x="267" y="-11"/>
      <point x="226" y="-11" type="curve" smooth="yes"/>
      <point x="153" y="-11"/>
      <point x="108" y="34"/>
      <point x="108" y="128" type="curve" smooth="yes"/>
      <point x="108" y="431" type="line"/>
      <point x="33" y="431" type="line"/>
      <point x="33" y="525" type="line"/>
      <point x="108" y="525" type="line"/>
      <point x="108" y="675" type="line"/>
      <point x="209" y="729" type="line"/>
      <point x="209" y="525" type="line"/>
      <point x="339" y="525" type="line"/>
      <point x="339" y="431" type="line"/>
      <point x="209" y="431" type="line"/>
      <point x="209" y="146" type="line" smooth="yes"/>
      <point x="209" y="97"/>
      <point x="225" y="83"/>
      <point x="263" y="83" type="curve" smooth="yes"/>
      <point x="290" y="83"/>
      <point x="320" y="93"/>
    </contour>
  </outline>
</glyph>
<glyph name="u" format="1">
  <advance width="570"/>
  <unicode hex="0075"/>
  <outline>
    <contour>
      <point x="494" y="0" type="line"/>
      <point x="391" y="0" type="line"/>
      <point x="391" y="50" type="line"/>
      <point x="365" y="12"/>
      <point x="313" y="-11"/>
      <point x="259" y="-11" type="curve" smooth="yes"/>
      <point x="137" y="-11"/>
      <point x="72" y="69"/>
      <point x="72" y="224" type="curve" smooth="yes"/>
      <point x="72" y="525" type="line"/>
      <point x="175" y="525" type="line"/>
      <point x="175" y="228" type="line" smooth="yes"/>
      <point x="175" y="122"/>
      <point x="215" y="84"/>
      <point x="283" y="84" type="curve" smooth="yes"/>
      <point x="352" y="84"/>
      <point x="391" y="133"/>
      <point x="391" y="218" type="curve" smooth="yes"/>
      <point x="391" y="525" type="line"/>
      <point x="494" y="525" type="line"/>
    </contour>
  </outline>
</glyph>
<glyph name="v" format="1">
  <advance width="542"/>
  <unicode hex="0076"/>
  <outline>
    <contour>
      <point x="509" y="525" type="line"/>
      <point x="324" y="0" type="line"/>
      <point x="221" y="0" type="line"/>
      <point x="33" y="525" type="line"/>
      <point x="141" y="525" type="line"/>
      <point x="235" y="240" type="line" smooth="yes"/>
      <point x="252" y="189"/>
      <point x="267" y="140"/>
      <point x="274" y="111" type="curve"/>
      <point x="280" y="140"/>
      <point x="294" y="189"/>
      <point x="310" y="240" type="curve" smooth="yes"/>
      <point x="400" y="525" type="line"/>
    </contour>
  </outline>
</glyph>
<glyph name="w" format="1">
  <advance width="741"/>
  <unicode hex="0077"/>
  <outline>
    <contour>
      <point x="701" y="525" type="line"/>
      <point x="555" y="0" type="line"/>
      <point x="467" y="0" type="line"/>
      <point x="396" y="265" type="line" smooth="yes"/>
      <point x="385" y="305"/>
      <point x="374" y="352"/>
      <point x="369" y="377" type="curve"/>
      <point x="364" y="352"/>
      <point x="353" y="304"/>
      <point x="342" y="264" type="curve" smooth="yes"/>
      <point x="272" y="0" type="line"/>
      <point x="184" y="0" type="line"/>
      <point x="40" y="525" type="line"/>
      <point x="142" y="525" type="line"/>
      <point x="204" y="270" type="line" smooth="yes"/>
      <point x="214" y="230"/>
      <point x="225" y="180"/>
      <point x="230" y="155" type="curve"/>
      <point x="236" y="181"/>
      <point x="248" y="229"/>
      <point x="259" y="270" type="curve" smooth="yes"/>
      <point x="329" y="525" type="line"/>
      <point x="412" y="525" type="line"/>
      <point x="483" y="269" type="line" smooth="yes"/>
      <point x="494" y="228"/>
      <point x="505" y="181"/>
      <point x="511" y="155" type="curve"/>
      <point x="517" y="181"/>
      <point x="527" y="230"/>
      <point x="537" y="270" type="curve" smooth="yes"/>
      <point x="599" y="525" type="line"/>
    </contour>
  </outline>
</glyph>
<glyph name="x" format="1">
  <advance width="531"/>
  <unicode hex="0078"/>
  <outline>
    <contour>
      <point x="491" y="0" type="line"/>
      <point x="369" y="0" type="line"/>
      <point x="319" y="91" type="line" smooth="yes"/>
      <point x="298" y="129"/>
      <point x="274" y="177"/>
      <point x="264" y="197" type="curve"/>
      <point x="255" y="177"/>
      <point x="227" y="126"/>
      <point x="207" y="90" type="curve" smooth="yes"/>
      <point x="156" y="0" type="line"/>
      <point x="40" y="0" type="line"/>
      <point x="205" y="272" type="line"/>
      <point x="51" y="525" type="line"/>
      <point x="170" y="525" type="line"/>
      <point x="211" y="451" type="line" smooth="yes"/>
      <point x="232" y="413"/>
      <point x="257" y="366"/>
      <point x="266" y="346" type="curve"/>
      <point x="277" y="366"/>
      <point x="302" y="416"/>
      <point x="322" y="453" type="curve" smooth="yes"/>
      <point x="362" y="525" type="line"/>
      <point x="480" y="525" type="line"/>
      <point x="325" y="272" type="line"/>
    </contour>
  </outline>
</glyph>
<glyph name="y" format="1">
  <advance width="556"/>
  <unicode hex="0079"/>
  <outline>
    <contour>
      <point x="523" y="525" type="line"/>
      <point x="259" y="-185" type="line"/>
      <point x="150" y="-185" type="line"/>
      <point x="226" y="10" type="line"/>
      <point x="33" y="525" type="line"/>
      <point x="146" y="525" type="line"/>
      <point x="232" y="268" type="line" smooth="yes"/>
      <point x="247" y="222"/>
      <point x="272" y="144"/>
      <point x="278" y="115" type="curve"/>
      <point x="287" y="146"/>
      <point x="309" y="221"/>
      <point x="325" y="266" type="curve" smooth="yes"/>
      <point x="414" y="525" type="line"/>
    </contour>
  </outline>
</glyph>
<glyph name="z" format="1">
  <advance width="527"/>
  <unicode hex="007A"/>
  <outline>
    <contour>
      <point x="463" y="0" type="line"/>
      <point x="58" y="0" type="line"/>
      <point x="58" y="84" type="line"/>
      <point x="283" y="359" type="line" smooth="yes"/>
      <point x="304" y="385"/>
      <point x="332" y="419"/>
      <point x="346" y="435" type="curve"/>
      <point x="327" y="434"/>
      <point x="278" y="435"/>
      <point x="252" y="435" type="curve" smooth="yes"/>
      <point x="78" y="435" type="line"/>
      <point x="78" y="525" type="line"/>
      <point x="463" y="525" type="line"/>
      <point x="463" y="442" type="line"/>
      <point x="243" y="167" type="line" smooth="yes"/>
      <point x="222" y="140"/>
      <point x="194" y="106"/>
      <point x="180" y="90" type="curve"/>
      <point x="199" y="91"/>
      <point x="250" y="90"/>
      <point x="276" y="90" type="curve" smooth="yes"/>
      <point x="463" y="90" type="line"/>
    </contour>
  </outline>
</glyph>
<glyph name="braceleft" format="1">
  <advance width="425"/>
  <unicode hex="007B"/>
  <outline>
    <contour>
      <point x="372" y="-110" type="line"/>
      <point x="210" y="-110"/>
      <point x="141" y="-39"/>
      <point x="141" y="101" type="curve" smooth="yes"/>
      <point x="141" y="165" type="line" smooth="yes"/>
      <point x="141" y="234"/>
      <point x="129" y="252"/>
      <point x="84" y="252" type="curve" smooth="yes"/>
      <point x="61" y="252" type="line"/>
      <point x="61" y="341" type="line"/>
      <point x="84" y="341" type="line" smooth="yes"/>
      <point x="129" y="341"/>
      <point x="141" y="359"/>
      <point x="141" y="428" type="curve" smooth="yes"/>
      <point x="141" y="493" type="line" smooth="yes"/>
      <point x="141" y="633"/>
      <point x="210" y="705"/>
      <point x="372" y="705" type="curve"/>
      <point x="372" y="629" type="line"/>
      <point x="275" y="619"/>
      <point x="245" y="579"/>
      <point x="245" y="499" type="curve" smooth="yes"/>
      <point x="245" y="452" type="line" smooth="yes"/>
      <point x="245" y="358"/>
      <point x="226" y="317"/>
      <point x="169" y="296" type="curve"/>
      <point x="226" y="276"/>
      <point x="245" y="235"/>
      <point x="245" y="141" type="curve" smooth="yes"/>
      <point x="245" y="94" type="line" smooth="yes"/>
      <point x="245" y="15"/>
      <point x="275" y="-23"/>
      <point x="372" y="-33" type="curve"/>
    </contour>
  </outline>
</glyph>
<glyph name="bar" format="1">
  <advance width="295"/>
  <unicode hex="007C"/>
  <outline>
    <contour>
      <point x="195" y="-185" type="line"/>
      <point x="100" y="-185" type="line"/>
      <point x="100" y="800" type="line"/>
      <point x="195" y="800" type="line"/>
    </contour>
  </outline>
</glyph>
<glyph name="braceright" format="1">
  <advance width="425"/>
  <unicode hex="007D"/>
  <outline>
    <contour>
      <point x="364" y="254" type="line"/>
      <point x="341" y="254" type="line" smooth="yes"/>
      <point x="296" y="254"/>
      <point x="284" y="236"/>
      <point x="284" y="167" type="curve" smooth="yes"/>
      <point x="284" y="102" type="line" smooth="yes"/>
      <point x="284" y="-38"/>
      <point x="215" y="-110"/>
      <point x="53" y="-110" type="curve"/>
      <point x="53" y="-34" type="line"/>
      <point x="150" y="-24"/>
      <point x="180" y="16"/>
      <point x="180" y="96" type="curve" smooth="yes"/>
      <point x="180" y="143" type="line" smooth="yes"/>
      <point x="180" y="237"/>
      <point x="199" y="278"/>
      <point x="256" y="299" type="curve"/>
      <point x="199" y="319"/>
      <point x="180" y="360"/>
      <point x="180" y="454" type="curve" smooth="yes"/>
      <point x="180" y="501" type="line" smooth="yes"/>
      <point x="180" y="580"/>
      <point x="150" y="618"/>
      <point x="53" y="628" type="curve"/>
      <point x="53" y="705" type="line"/>
      <point x="215" y="705"/>
      <point x="284" y="634"/>
      <point x="284" y="494" type="curve" smooth="yes"/>
      <point x="284" y="430" type="line" smooth="yes"/>
      <point x="284" y="361"/>
      <point x="296" y="343"/>
      <point x="341" y="343" type="curve" smooth="yes"/>
      <point x="364" y="343" type="line"/>
    </contour>
  </outline>
</glyph>
<glyph name="asciitilde" format="1">
  <advance width="562"/>
  <unicode hex="007E"/>
  <outline>
    <contour>
      <point x="520" y="424" type="line"/>
      <point x="484" y="332"/>
      <point x="441" y="283"/>
      <point x="367" y="283" type="curve" smooth="yes"/>
      <point x="326" y="283"/>
      <point x="304" y="294"/>
      <point x="271" y="317" type="curve" smooth="yes"/>
      <point x="228" y="346"/>
      <point x="207" y="357"/>
      <point x="188" y="357" type="curve" smooth="yes"/>
      <point x="156" y="357"/>
      <point x="142" y="339"/>
      <point x="114" y="281" type="curve"/>
      <point x="42" y="318" type="line"/>
      <point x="78" y="410"/>
      <point x="121" y="459"/>
      <point x="195" y="459" type="curve" smooth="yes"/>
      <point x="236" y="459"/>
      <point x="258" y="448"/>
      <point x="291" y="425" type="curve" smooth="yes"/>
      <point x="329" y="399"/>
      <point x="356" y="385"/>
      <point x="373" y="385" type="curve" smooth="yes"/>
      <point x="405" y="385"/>
      <point x="420" y="403"/>
      <point x="448" y="461" type="curve"/>
    </contour>
  </outline>
</glyph>
<glyph name="exclamdown" format="1">
  <advance width="298"/>
  <unicode hex="00A1"/>
  <outline>
    <contour>
      <point x="224" y="636" type="curve" smooth="yes"/>
      <point x="224" y="595"/>
      <point x="190" y="560"/>
      <point x="149" y="560" type="curve" smooth="yes"/>
      <point x="108" y="560"/>
      <point x="74" y="595"/>
      <point x="74" y="636" type="curve" smooth="yes"/>
      <point x="74" y="677"/>
      <point x="108" y="711"/>
      <point x="149" y="711" type="curve" smooth="yes"/>
      <point x="190" y="711"/>
      <point x="224" y="677"/>
    </contour>
    <contour>
      <point x="202" y="0" type="line"/>
      <point x="96" y="0" type="line"/>
      <point x="96" y="311" type="line"/>
      <point x="116" y="498" type="line"/>
      <point x="182" y="498" type="line"/>
      <point x="202" y="311" type="line"/>
    </contour>
  </outline>
</glyph>
<glyph name="cent" format="1">
  <advance width="522"/>
  <unicode hex="00A2"/>
  <outline>
    <contour>
      <point x="467" y="541" type="curve"/>
      <point x="406" y="471" type="line"/>
      <point x="363" y="515"/>
      <point x="325" y="535"/>
      <point x="278" y="535" type="curve" smooth="yes"/>
      <point x="203" y="535"/>
      <point x="155" y="468"/>
      <point x="155" y="358" type="curve" smooth="yes"/>
      <point x="155" y="252"/>
      <point x="199" y="178"/>
      <point x="281" y="178" type="curve" smooth="yes"/>
      <point x="330" y="178"/>
      <point x="362" y="199"/>
      <point x="402" y="241" type="curve"/>
      <point x="466" y="181" type="line"/>
      <point x="433" y="139"/>
      <point x="393" y="101"/>
      <point x="329" y="88" type="curve"/>
      <point x="329" y="-11" type="line"/>
      <point x="224" y="-11" type="line"/>
      <point x="224" y="90" type="line"/>
      <point x="123" y="116"/>
      <point x="51" y="215"/>
      <point x="51" y="355" type="curve" smooth="yes"/>
      <point x="51" y="502"/>
      <point x="124" y="597"/>
      <point x="224" y="623" type="curve"/>
      <point x="224" y="711" type="line"/>
      <point x="329" y="711" type="line"/>
      <point x="329" y="626" type="line"/>
      <point x="384" y="615"/>
      <point x="429" y="586"/>
    </contour>
  </outline>
</glyph>
<glyph name="sterling" format="1">
  <advance width="637"/>
  <unicode hex="00A3"/>
  <outline>
    <contour>
      <point x="592" y="616" type="curve"/>
      <point x="526" y="537" type="line"/>
      <point x="480" y="582"/>
      <point x="415" y="607"/>
      <point x="350" y="607" type="curve" smooth="yes"/>
      <point x="252" y="607"/>
      <point x="220" y="571"/>
      <point x="220" y="524" type="curve" smooth="yes"/>
      <point x="220" y="496"/>
      <point x="234" y="464"/>
      <point x="249" y="434" type="curve" smooth="yes"/>
      <point x="258" y="415"/>
      <point x="268" y="395"/>
      <point x="274" y="373" type="curve"/>
      <point x="432" y="373" type="line"/>
      <point x="432" y="280" type="line"/>
      <point x="282" y="280" type="line"/>
      <point x="276" y="209"/>
      <point x="251" y="157"/>
      <point x="202" y="97" type="curve"/>
      <point x="578" y="97" type="line"/>
      <point x="578" y="0" type="line"/>
      <point x="86" y="0" type="line"/>
      <point x="86" y="102" type="line"/>
      <point x="144" y="162"/>
      <point x="173" y="206"/>
      <point x="179" y="280" type="curve"/>
      <point x="86" y="280" type="line"/>
      <point x="86" y="373" type="line"/>
      <point x="164" y="373" type="line"/>
      <point x="158" y="388"/>
      <point x="151" y="404"/>
      <point x="143" y="420" type="curve" smooth="yes"/>
      <point x="125" y="454"/>
      <point x="111" y="492"/>
      <point x="111" y="527" type="curve" smooth="yes"/>
      <point x="111" y="646"/>
      <point x="205" y="711"/>
      <point x="352" y="711" type="curve" smooth="yes"/>
      <point x="446" y="711"/>
      <point x="524" y="678"/>
    </contour>
  </outline>
</glyph>
<glyph name="yen" format="1">
  <advance width="639"/>
  <unicode hex="00A5"/>
  <outline>
    <contour>
      <point x="608" y="700" type="line"/>
      <point x="371" y="277" type="line"/>
      <point x="371" y="210" type="line"/>
      <point x="532" y="210" type="line"/>
      <point x="532" y="118" type="line"/>
      <point x="371" y="118" type="line"/>
      <point x="371" y="0" type="line"/>
      <point x="268" y="0" type="line"/>
      <point x="268" y="118" type="line"/>
      <point x="107" y="118" type="line"/>
      <point x="107" y="210" type="line"/>
      <point x="268" y="210" type="line"/>
      <point x="268" y="273" type="line"/>
      <point x="31" y="700" type="line"/>
      <point x="149" y="700" type="line"/>
      <point x="244" y="520" type="line" smooth="yes"/>
      <point x="268" y="475"/>
      <point x="310" y="397"/>
      <point x="320" y="366" type="curve"/>
      <point x="332" y="398"/>
      <point x="371" y="472"/>
      <point x="396" y="519" type="curve" smooth="yes"/>
      <point x="492" y="700" type="line"/>
    </contour>
  </outline>
</glyph>
<glyph name="section" format="1">
  <advance width="660"/>
  <unicode hex="00A7"/>
  <outline>
    <contour>
      <point x="605" y="251" type="curve" smooth="yes"/>
      <point x="605" y="175"/>
      <point x="549" y="124"/>
      <point x="496" y="93" type="curve"/>
      <point x="517" y="69"/>
      <point x="530" y="39"/>
      <point x="530" y="-1" type="curve" smooth="yes"/>
      <point x="530" y="-93"/>
      <point x="457" y="-164"/>
      <point x="332" y="-164" type="curve" smooth="yes"/>
      <point x="254" y="-164"/>
      <point x="190" y="-140"/>
      <point x="129" y="-92" type="curve"/>
      <point x="192" y="-11" type="line"/>
      <point x="240" y="-49"/>
      <point x="289" y="-64"/>
      <point x="342" y="-64" type="curve" smooth="yes"/>
      <point x="397" y="-64"/>
      <point x="421" y="-38"/>
      <point x="421" y="-4" type="curve" smooth="yes"/>
      <point x="421" y="50"/>
      <point x="335" y="68"/>
      <point x="247" y="98" type="curve" smooth="yes"/>
      <point x="152" y="130"/>
      <point x="55" y="176"/>
      <point x="55" y="296" type="curve" smooth="yes"/>
      <point x="55" y="372"/>
      <point x="111" y="423"/>
      <point x="164" y="454" type="curve"/>
      <point x="143" y="478"/>
      <point x="130" y="508"/>
      <point x="130" y="548" type="curve" smooth="yes"/>
      <point x="130" y="640"/>
      <point x="203" y="711"/>
      <point x="328" y="711" type="curve" smooth="yes"/>
      <point x="406" y="711"/>
      <point x="470" y="687"/>
      <point x="531" y="639" type="curve"/>
      <point x="468" y="558" type="line"/>
      <point x="420" y="596"/>
      <point x="371" y="611"/>
      <point x="318" y="611" type="curve" smooth="yes"/>
      <point x="263" y="611"/>
      <point x="239" y="585"/>
      <point x="239" y="551" type="curve" smooth="yes"/>
      <point x="239" y="497"/>
      <point x="325" y="479"/>
      <point x="413" y="449" type="curve" smooth="yes"/>
      <point x="508" y="417"/>
      <point x="605" y="371"/>
    </contour>
    <contour>
      <point x="497" y="241" type="curve" smooth="yes"/>
      <point x="497" y="304"/>
      <point x="439" y="332"/>
      <point x="369" y="356" type="curve" smooth="yes"/>
      <point x="327" y="370"/>
      <point x="282" y="383"/>
      <point x="242" y="401" type="curve"/>
      <point x="205" y="382"/>
      <point x="163" y="352"/>
      <point x="163" y="306" type="curve" smooth="yes"/>
      <point x="163" y="243"/>
      <point x="221" y="215"/>
      <point x="291" y="191" type="curve" smooth="yes"/>
      <point x="333" y="177"/>
      <point x="378" y="164"/>
      <point x="418" y="146" type="curve"/>
      <point x="455" y="165"/>
      <point x="497" y="195"/>
    </contour>
  </outline>
</glyph>
<glyph name="dieresis" format="1">
  <advance width="500"/>
  <unicode hex="00A8"/>
  <outline>
    <contour>
      <point x="415" y="662" type="curve" smooth="yes"/>
      <point x="415" y="626"/>
      <point x="384" y="595"/>
      <point x="348" y="595" type="curve" smooth="yes"/>
      <point x="311" y="595"/>
      <point x="280" y="626"/>
      <point x="280" y="662" type="curve" smooth="yes"/>
      <point x="280" y="699"/>
      <point x="311" y="730"/>
      <point x="348" y="730" type="curve" smooth="yes"/>
      <point x="384" y="730"/>
      <point x="415" y="699"/>
    </contour>
    <contour>
      <point x="220" y="662" type="curve" smooth="yes"/>
      <point x="220" y="626"/>
      <point x="189" y="595"/>
      <point x="153" y="595" type="curve" smooth="yes"/>
      <point x="116" y="595"/>
      <point x="85" y="626"/>
      <point x="85" y="662" type="curve" smooth="yes"/>
      <point x="85" y="699"/>
      <point x="116" y="730"/>
      <point x="153" y="730" type="curve" smooth="yes"/>
      <point x="189" y="730"/>
      <point x="220" y="699"/>
    </contour>
  </outline>
</glyph>
<glyph name="copyright" format="1">
  <advance width="836"/>
  <unicode hex="00A9"/>
  <outline>
    <contour>
      <point x="779" y="350" type="curve" smooth="yes"/>
      <point x="779" y="145"/>
      <point x="623" y="-11"/>
      <point x="418" y="-11" type="curve" smooth="yes"/>
      <point x="213" y="-11"/>
      <point x="57" y="145"/>
      <point x="57" y="350" type="curve" smooth="yes"/>
      <point x="57" y="555"/>
      <point x="213" y="711"/>
      <point x="418" y="711" type="curve" smooth="yes"/>
      <point x="623" y="711"/>
      <point x="779" y="555"/>
    </contour>
    <contour>
      <point x="721" y="350" type="curve" smooth="yes"/>
      <point x="721" y="522"/>
      <point x="590" y="653"/>
      <point x="418" y="653" type="curve" smooth="yes"/>
      <point x="246" y="653"/>
      <point x="115" y="522"/>
      <point x="115" y="350" type="curve" smooth="yes"/>
      <point x="115" y="178"/>
      <point x="246" y="47"/>
      <point x="418" y="47" type="curve" smooth="yes"/>
      <point x="590" y="47"/>
      <point x="721" y="178"/>
    </contour>
    <contour>
      <point x="560" y="229" type="line"/>
      <point x="529" y="176"/>
      <point x="481" y="148"/>
      <point x="421" y="148" type="curve" smooth="yes"/>
      <point x="320" y="148"/>
      <point x="254" y="232"/>
      <point x="254" y="352" type="curve" smooth="yes"/>
      <point x="254" y="472"/>
      <point x="320" y="555"/>
      <point x="421" y="555" type="curve" smooth="yes"/>
      <point x="486" y="555"/>
      <point x="529" y="529"/>
      <point x="558" y="477" type="curve"/>
      <point x="499" y="440" type="line"/>
      <point x="478" y="473"/>
      <point x="459" y="488"/>
      <point x="421" y="488" type="curve" smooth="yes"/>
      <point x="356" y="488"/>
      <point x="323" y="435"/>
      <point x="323" y="352" type="curve" smooth="yes"/>
      <point x="323" y="269"/>
      <point x="356" y="215"/>
      <point x="421" y="215" type="curve" smooth="yes"/>
      <point x="459" y="215"/>
      <point x="482" y="232"/>
      <point x="504" y="267" type="curve"/>
    </contour>
  </outline>
</glyph>
<glyph name="ordfeminine" format="1">
  <advance width="460"/>
  <unicode hex="00AA"/>
  <outline>
    <contour>
      <point x="391" y="279" type="line"/>
      <point x="306" y="279" type="line"/>
      <point x="306" y="316" type="line"/>
      <point x="277" y="288"/>
      <point x="238" y="269"/>
      <point x="195" y="269" type="curve" smooth="yes"/>
      <point x="126" y="269"/>
      <point x="46" y="308"/>
      <point x="46" y="413" type="curve" smooth="yes"/>
      <point x="46" y="505"/>
      <point x="120" y="551"/>
      <point x="217" y="551" type="curve" smooth="yes"/>
      <point x="252" y="551"/>
      <point x="283" y="545"/>
      <point x="306" y="535" type="curve"/>
      <point x="306" y="562" type="line" smooth="yes"/>
      <point x="306" y="607"/>
      <point x="280" y="632"/>
      <point x="229" y="632" type="curve" smooth="yes"/>
      <point x="188" y="632"/>
      <point x="154" y="625"/>
      <point x="120" y="607" type="curve"/>
      <point x="87" y="670" type="line"/>
      <point x="127" y="695"/>
      <point x="174" y="711"/>
      <point x="232" y="711" type="curve" smooth="yes"/>
      <point x="326" y="711"/>
      <point x="391" y="662"/>
      <point x="391" y="566" type="curve" smooth="yes"/>
    </contour>
    <contour>
      <point x="306" y="401" type="curve"/>
      <point x="306" y="457" type="line"/>
      <point x="283" y="468"/>
      <point x="256" y="476"/>
      <point x="213" y="476" type="curve" smooth="yes"/>
      <point x="161" y="476"/>
      <point x="129" y="453"/>
      <point x="129" y="415" type="curve" smooth="yes"/>
      <point x="129" y="373"/>
      <point x="154" y="348"/>
      <point x="208" y="348" type="curve" smooth="yes"/>
      <point x="250" y="348"/>
      <point x="288" y="375"/>
    </contour>
  </outline>
</glyph>
<glyph name="guillemotleft" format="1">
  <advance width="588"/>
  <unicode hex="00AB"/>
  <outline>
    <contour>
      <point x="548" y="0" type="line"/>
      <point x="437" y="0" type="line"/>
      <point x="252" y="262" type="line"/>
      <point x="437" y="525" type="line"/>
      <point x="548" y="525" type="line"/>
      <point x="368" y="263" type="line"/>
    </contour>
    <contour>
      <point x="326" y="0" type="line"/>
      <point x="215" y="0" type="line"/>
      <point x="30" y="262" type="line"/>
      <point x="215" y="525" type="line"/>
      <point x="326" y="525" type="line"/>
      <point x="146" y="263" type="line"/>
    </contour>
  </outline>
</glyph>
<glyph name="degree" format="1">
  <advance width="486"/>
  <unicode hex="00B0"/>
  <outline>
    <contour>
      <point x="441" y="514" type="curve" smooth="yes"/>
      <point x="441" y="401"/>
      <point x="355" y="315"/>
      <point x="243" y="315" type="curve" smooth="yes"/>
      <point x="132" y="315"/>
      <point x="45" y="401"/>
      <point x="45" y="514" type="curve" smooth="yes"/>
      <point x="45" y="624"/>
      <point x="132" y="711"/>
      <point x="243" y="711" type="curve" smooth="yes"/>
      <point x="355" y="711"/>
      <point x="441" y="624"/>
    </contour>
    <contour>
      <point x="351" y="514" type="curve" smooth="yes"/>
      <point x="351" y="573"/>
      <point x="304" y="622"/>
      <point x="243" y="622" type="curve" smooth="yes"/>
      <point x="183" y="622"/>
      <point x="135" y="573"/>
      <point x="135" y="514" type="curve" smooth="yes"/>
      <point x="135" y="452"/>
      <point x="183" y="404"/>
      <point x="243" y="404" type="curve" smooth="yes"/>
      <point x="304" y="404"/>
      <point x="351" y="452"/>
    </contour>
  </outline>
</glyph>
<glyph name="periodcentered" format="1">
  <advance width="254"/>
  <unicode hex="00B7"/>
  <outline>
    <contour>
      <point x="206" y="367" type="curve" smooth="yes"/>
      <point x="206" y="324"/>
      <point x="170" y="288"/>
      <point x="127" y="288" type="curve" smooth="yes"/>
      <point x="84" y="288"/>
      <point x="48" y="324"/>
      <point x="48" y="367" type="curve" smooth="yes"/>
      <point x="48" y="410"/>
      <point x="84" y="447"/>
      <point x="127" y="447" type="curve" smooth="yes"/>
      <point x="170" y="447"/>
      <point x="206" y="410"/>
    </contour>
  </outline>
</glyph>
<glyph name="cedilla" format="1">
  <advance width="500"/>
  <unicode hex="00B8"/>
  <outline>
    <contour>
      <point x="375" y="-106" type="curve" smooth="yes"/>
      <point x="375" y="-169"/>
      <point x="320" y="-193"/>
      <point x="253" y="-193" type="curve" smooth="yes"/>
      <point x="205" y="-193"/>
      <point x="166" y="-180"/>
      <point x="130" y="-157" type="curve"/>
      <point x="152" y="-124" type="line"/>
      <point x="178" y="-139"/>
      <point x="209" y="-148"/>
      <point x="240" y="-148" type="curve" smooth="yes"/>
      <point x="284" y="-148"/>
      <point x="304" y="-132"/>
      <point x="304" y="-109" type="curve" smooth="yes"/>
      <point x="304" y="-89"/>
      <point x="291" y="-77"/>
      <point x="272" y="-77" type="curve" smooth="yes"/>
      <point x="254" y="-77"/>
      <point x="243" y="-83"/>
      <point x="232" y="-92" type="curve"/>
      <point x="196" y="-78" type="line"/>
      <point x="214" y="12" type="line"/>
      <point x="265" y="12" type="line"/>
      <point x="255" y="-45" type="line"/>
      <point x="267" y="-40"/>
      <point x="281" y="-36"/>
      <point x="303" y="-36" type="curve" smooth="yes"/>
      <point x="337" y="-36"/>
      <point x="375" y="-56"/>
    </contour>
  </outline>
</glyph>
<glyph name="ordmasculine" format="1">
  <advance width="484"/>
  <unicode hex="00BA"/>
  <outline>
    <contour>
      <point x="431" y="493" type="curve" smooth="yes"/>
      <point x="431" y="352"/>
      <point x="348" y="270"/>
      <point x="239" y="270" type="curve" smooth="yes"/>
      <point x="133" y="270"/>
      <point x="53" y="358"/>
      <point x="53" y="490" type="curve" smooth="yes"/>
      <point x="53" y="629"/>
      <point x="135" y="711"/>
      <point x="242" y="711" type="curve" smooth="yes"/>
      <point x="350" y="711"/>
      <point x="431" y="625"/>
    </contour>
    <contour>
      <point x="344" y="490" type="curve" smooth="yes"/>
      <point x="344" y="575"/>
      <point x="304" y="629"/>
      <point x="239" y="629" type="curve" smooth="yes"/>
      <point x="177" y="629"/>
      <point x="140" y="575"/>
      <point x="140" y="493" type="curve" smooth="yes"/>
      <point x="140" y="402"/>
      <point x="181" y="352"/>
      <point x="243" y="352" type="curve" smooth="yes"/>
      <point x="304" y="352"/>
      <point x="344" y="414"/>
    </contour>
  </outline>
</glyph>
<glyph name="guillemotright" format="1">
  <advance width="588"/>
  <unicode hex="00BB"/>
  <outline>
    <contour>
      <point x="558" y="263" type="line"/>
      <point x="373" y="0" type="line"/>
      <point x="262" y="0" type="line"/>
      <point x="442" y="262" type="line"/>
      <point x="262" y="525" type="line"/>
      <point x="373" y="525" type="line"/>
    </contour>
    <contour>
      <point x="336" y="263" type="line"/>
      <point x="151" y="0" type="line"/>
      <point x="40" y="0" type="line"/>
      <point x="220" y="262" type="line"/>
      <point x="40" y="525" type="line"/>
      <point x="151" y="525" type="line"/>
    </contour>
  </outline>
</glyph>
<glyph name="questiondown" format="1">
  <advance width="571"/>
  <unicode hex="00BF"/>
  <outline>
    <contour>
      <point x="388" y="636" type="curve" smooth="yes"/>
      <point x="388" y="595"/>
      <point x="354" y="560"/>
      <point x="313" y="560" type="curve" smooth="yes"/>
      <point x="272" y="560"/>
      <point x="238" y="595"/>
      <point x="238" y="636" type="curve" smooth="yes"/>
      <point x="238" y="677"/>
      <point x="272" y="711"/>
      <point x="313" y="711" type="curve" smooth="yes"/>
      <point x="354" y="711"/>
      <point x="388" y="677"/>
    </contour>
    <contour>
      <point x="537" y="92" type="line"/>
      <point x="480" y="35"/>
      <point x="397" y="-11"/>
      <point x="293" y="-11" type="curve" smooth="yes"/>
      <point x="151" y="-11"/>
      <point x="54" y="53"/>
      <point x="54" y="175" type="curve" smooth="yes"/>
      <point x="54" y="272"/>
      <point x="99" y="315"/>
      <point x="183" y="362" type="curve" smooth="yes"/>
      <point x="248" y="398"/>
      <point x="258" y="422"/>
      <point x="258" y="498" type="curve"/>
      <point x="367" y="498" type="line"/>
      <point x="367" y="381"/>
      <point x="346" y="341"/>
      <point x="235" y="280" type="curve" smooth="yes"/>
      <point x="184" y="252"/>
      <point x="161" y="229"/>
      <point x="161" y="181" type="curve" smooth="yes"/>
      <point x="161" y="125"/>
      <point x="210" y="93"/>
      <point x="296" y="93" type="curve" smooth="yes"/>
      <point x="370" y="93"/>
      <point x="420" y="123"/>
      <point x="470" y="171" type="curve"/>
    </contour>
  </outline>
</glyph>
<glyph name="Aring" format="1">
  <advance width="712"/>
  <unicode hex="00C5"/>
  <outline>
    <contour>
      <point x="665" y="0" type="line"/>
      <point x="550" y="0" type="line"/>
      <point x="492" y="163" type="line"/>
      <point x="217" y="163" type="line"/>
      <point x="160" y="0" type="line"/>
      <point x="47" y="0" type="line"/>
      <point x="281" y="650" type="line"/>
      <point x="249" y="672"/>
      <point x="228" y="710"/>
      <point x="228" y="754" type="curve" smooth="yes"/>
      <point x="228" y="826"/>
      <point x="282" y="880"/>
      <point x="354" y="880" type="curve" smooth="yes"/>
      <point x="426" y="880"/>
      <point x="480" y="826"/>
      <point x="480" y="754" type="curve" smooth="yes"/>
      <point x="480" y="710"/>
      <point x="460" y="673"/>
      <point x="428" y="651" type="curve"/>
    </contour>
    <contour>
      <point x="415" y="754" type="curve" smooth="yes"/>
      <point x="415" y="789"/>
      <point x="389" y="815"/>
      <point x="354" y="815" type="curve" smooth="yes"/>
      <point x="319" y="815"/>
      <point x="293" y="789"/>
      <point x="293" y="754" type="curve" smooth="yes"/>
      <point x="293" y="719"/>
      <point x="319" y="693"/>
      <point x="354" y="693" type="curve" smooth="yes"/>
      <point x="389" y="693"/>
      <point x="415" y="719"/>
    </contour>
    <contour>
      <point x="456" y="264" type="line"/>
      <point x="401" y="421" type="line" smooth="yes"/>
      <point x="386" y="463"/>
      <point x="362" y="535"/>
      <point x="354" y="561" type="curve"/>
      <point x="346" y="535"/>
      <point x="323" y="464"/>
      <point x="309" y="425" type="curve" smooth="yes"/>
      <point x="253" y="264" type="line"/>
    </contour>
  </outline>
</glyph>
<glyph name="AE" format="1">
  <advance width="1018"/>
  <unicode hex="00C6"/>
  <outline>
    <contour>
      <point x="960" y="0" type="line"/>
      <point x="498" y="0" type="line"/>
      <point x="498" y="164" type="line"/>
      <point x="239" y="164" type="line"/>
      <point x="131" y="0" type="line"/>
      <point x="14" y="0" type="line"/>
      <point x="484" y="700" type="line"/>
      <point x="945" y="700" type="line"/>
      <point x="945" y="598" type="line"/>
      <point x="599" y="598" type="line"/>
      <point x="599" y="425" type="line"/>
      <point x="800" y="425" type="line"/>
      <point x="800" y="323" type="line"/>
      <point x="599" y="323" type="line"/>
      <point x="599" y="102" type="line"/>
      <point x="960" y="102" type="line"/>
    </contour>
    <contour>
      <point x="500" y="565" type="curve"/>
      <point x="488" y="546"/>
      <point x="450" y="483"/>
      <point x="427" y="448" type="curve" smooth="yes"/>
      <point x="303" y="261" type="line"/>
      <point x="498" y="261" type="line"/>
      <point x="498" y="429" type="line" smooth="yes"/>
      <point x="498" y="470"/>
      <point x="500" y="537"/>
    </contour>
  </outline>
</glyph>
<glyph name="Ccedilla" format="1">
  <advance width="655"/>
  <unicode hex="00C7"/>
  <outline>
    <contour>
      <point x="595" y="123" type="line"/>
      <point x="546" y="39"/>
      <point x="464" y="-9"/>
      <point x="361" y="-11" type="curve"/>
      <point x="355" y="-45" type="line"/>
      <point x="367" y="-40"/>
      <point x="381" y="-36"/>
      <point x="403" y="-36" type="curve" smooth="yes"/>
      <point x="437" y="-36"/>
      <point x="475" y="-56"/>
      <point x="475" y="-106" type="curve" smooth="yes"/>
      <point x="475" y="-169"/>
      <point x="420" y="-193"/>
      <point x="353" y="-193" type="curve" smooth="yes"/>
      <point x="305" y="-193"/>
      <point x="266" y="-180"/>
      <point x="230" y="-157" type="curve"/>
      <point x="252" y="-124" type="line"/>
      <point x="278" y="-139"/>
      <point x="309" y="-148"/>
      <point x="340" y="-148" type="curve" smooth="yes"/>
      <point x="384" y="-148"/>
      <point x="404" y="-132"/>
      <point x="404" y="-109" type="curve" smooth="yes"/>
      <point x="404" y="-89"/>
      <point x="391" y="-77"/>
      <point x="372" y="-77" type="curve" smooth="yes"/>
      <point x="354" y="-77"/>
      <point x="343" y="-83"/>
      <point x="332" y="-92" type="curve"/>
      <point x="296" y="-78" type="line"/>
      <point x="310" y="-8" type="line"/>
      <point x="155" y="14"/>
      <point x="58" y="156"/>
      <point x="58" y="350" type="curve" smooth="yes"/>
      <point x="58" y="562"/>
      <point x="173" y="711"/>
      <point x="354" y="711" type="curve" smooth="yes"/>
      <point x="468" y="711"/>
      <point x="544" y="665"/>
      <point x="592" y="580" type="curve"/>
      <point x="499" y="522" type="line"/>
      <point x="463" y="579"/>
      <point x="426" y="606"/>
      <point x="354" y="606" type="curve" smooth="yes"/>
      <point x="232" y="606"/>
      <point x="166" y="507"/>
      <point x="166" y="350" type="curve" smooth="yes"/>
      <point x="166" y="193"/>
      <point x="232" y="94"/>
      <point x="354" y="94" type="curve" smooth="yes"/>
      <point x="427" y="94"/>
      <point x="472" y="124"/>
      <point x="508" y="181" type="curve"/>
    </contour>
  </outline>
</glyph>
<glyph name="Eth" format="1">
  <advance width="694"/>
  <unicode hex="00D0"/>
  <outline>
    <contour>
      <point x="638" y="350" type="curve" smooth="yes"/>
      <point x="638" y="103"/>
      <point x="480" y="0"/>
      <point x="297" y="0" type="curve" smooth="yes"/>
      <point x="106" y="0" type="line"/>
      <point x="106" y="316" type="line"/>
      <point x="40" y="316" type="line"/>
      <point x="40" y="416" type="line"/>
      <point x="106" y="416" type="line"/>
      <point x="106" y="700" type="line"/>
      <point x="297" y="700" type="line" smooth="yes"/>
      <point x="485" y="700"/>
      <point x="638" y="597"/>
    </contour>
    <contour>
      <point x="531" y="350" type="curve" smooth="yes"/>
      <point x="531" y="497"/>
      <point x="463" y="597"/>
      <point x="297" y="597" type="curve" smooth="yes"/>
      <point x="208" y="597" type="line"/>
      <point x="208" y="416" type="line"/>
      <point x="335" y="416" type="line"/>
      <point x="335" y="316" type="line"/>
      <point x="208" y="316" type="line"/>
      <point x="208" y="103" type="line"/>
      <point x="297" y="103" type="line" smooth="yes"/>
      <point x="463" y="103"/>
      <point x="531" y="203"/>
    </contour>
  </outline>
</glyph>
<glyph name="Oslash" format="1">
  <advance width="711"/>
  <unicode hex="00D8"/>
  <outline>
    <contour>
      <point x="651" y="350" type="curve" smooth="yes"/>
      <point x="651" y="138"/>
      <point x="536" y="-11"/>
      <point x="354" y="-11" type="curve" smooth="yes"/>
      <point x="314" y="-11"/>
      <point x="277" y="-4"/>
      <point x="243" y="10" type="curve"/>
      <point x="216" y="-50" type="line"/>
      <point x="118" y="-50" type="line"/>
      <point x="167" y="58" type="line"/>
      <point x="98" y="122"/>
      <point x="58" y="225"/>
      <point x="58" y="350" type="curve" smooth="yes"/>
      <point x="58" y="562"/>
      <point x="173" y="711"/>
      <point x="354" y="711" type="curve" smooth="yes"/>
      <point x="391" y="711"/>
      <point x="425" y="705"/>
      <point x="456" y="693" type="curve"/>
      <point x="482" y="750" type="line"/>
      <point x="580" y="750" type="line"/>
      <point x="533" y="648" type="line"/>
      <point x="608" y="585"/>
      <point x="651" y="479"/>
    </contour>
    <contour>
      <point x="415" y="602" type="line"/>
      <point x="398" y="607"/>
      <point x="379" y="610"/>
      <point x="354" y="610" type="curve" smooth="yes"/>
      <point x="232" y="610"/>
      <point x="165" y="507"/>
      <point x="165" y="350" type="curve" smooth="yes"/>
      <point x="165" y="264"/>
      <point x="180" y="203"/>
      <point x="213" y="159" type="curve"/>
    </contour>
    <contour>
      <point x="544" y="350" type="curve" smooth="yes"/>
      <point x="544" y="438"/>
      <point x="527" y="505"/>
      <point x="489" y="550" type="curve"/>
      <point x="284" y="101" type="line"/>
      <point x="303" y="93"/>
      <point x="324" y="90"/>
      <point x="354" y="90" type="curve" smooth="yes"/>
      <point x="477" y="90"/>
      <point x="544" y="193"/>
    </contour>
  </outline>
</glyph>
<glyph name="Thorn" format="1">
  <advance width="653"/>
  <unicode hex="00DE"/>
  <outline>
    <contour>
      <point x="609" y="364" type="curve" smooth="yes"/>
      <point x="609" y="220"/>
      <point x="513" y="144"/>
      <point x="377" y="144" type="curve" smooth="yes"/>
      <point x="196" y="144" type="line"/>
      <point x="196" y="0" type="line"/>
      <point x="91" y="0" type="line"/>
      <point x="91" y="700" type="line"/>
      <point x="196" y="700" type="line"/>
      <point x="196" y="583" type="line"/>
      <point x="384" y="583" type="line" smooth="yes"/>
      <point x="513" y="583"/>
      <point x="609" y="509"/>
    </contour>
    <contour>
      <point x="502" y="364" type="curve" smooth="yes"/>
      <point x="502" y="441"/>
      <point x="454" y="482"/>
      <point x="381" y="482" type="curve" smooth="yes"/>
      <point x="196" y="482" type="line"/>
      <point x="196" y="245" type="line"/>
      <point x="381" y="245" type="line" smooth="yes"/>
      <point x="461" y="245"/>
      <point x="502" y="289"/>
    </contour>
  </outline>
</glyph>
<glyph name="germandbls" format="1">
  <advance width="581"/>
  <unicode hex="00DF"/>
  <outline>
    <contour>
      <point x="530" y="226" type="curve" smooth="yes"/>
      <point x="530" y="66"/>
      <point x="433" y="0"/>
      <point x="272" y="0" type="curve" smooth="yes"/>
      <point x="260" y="0" type="line"/>
      <point x="260" y="94" type="line"/>
      <point x="278" y="94" type="line" smooth="yes"/>
      <point x="368" y="94"/>
      <point x="426" y="131"/>
      <point x="426" y="220" type="curve" smooth="yes"/>
      <point x="426" y="308"/>
      <point x="356" y="349"/>
      <point x="271" y="349" type="curve" smooth="yes"/>
      <point x="260" y="349" type="line"/>
      <point x="260" y="442" type="line"/>
      <point x="275" y="442" type="line" smooth="yes"/>
      <point x="333" y="442"/>
      <point x="372" y="476"/>
      <point x="372" y="538" type="curve" smooth="yes"/>
      <point x="372" y="595"/>
      <point x="335" y="631"/>
      <point x="274" y="631" type="curve" smooth="yes"/>
      <point x="213" y="631"/>
      <point x="179" y="591"/>
      <point x="179" y="525" type="curve" smooth="yes"/>
      <point x="179" y="-138" type="line"/>
      <point x="76" y="-193" type="line"/>
      <point x="76" y="521" type="line" smooth="yes"/>
      <point x="76" y="663"/>
      <point x="157" y="726"/>
      <point x="276" y="726" type="curve" smooth="yes"/>
      <point x="389" y="726"/>
      <point x="476" y="656"/>
      <point x="476" y="541" type="curve" smooth="yes"/>
      <point x="476" y="468"/>
      <point x="441" y="421"/>
      <point x="387" y="402" type="curve"/>
      <point x="454" y="387"/>
      <point x="530" y="341"/>
    </contour>
  </outline>
</glyph>
<glyph name="ae" format="1">
  <advance width="850"/>
  <unicode hex="00E6"/>
  <outline>
    <contour>
      <point x="794" y="272" type="curve" smooth="yes"/>
      <point x="794" y="253"/>
      <point x="792" y="236"/>
      <point x="791" y="225" type="curve"/>
      <point x="470" y="225" type="line"/>
      <point x="475" y="131"/>
      <point x="525" y="85"/>
      <point x="588" y="85" type="curve" smooth="yes"/>
      <point x="633" y="85"/>
      <point x="656" y="100"/>
      <point x="689" y="127" type="curve"/>
      <point x="752" y="59" type="line"/>
      <point x="706" y="14"/>
      <point x="663" y="-11"/>
      <point x="582" y="-11" type="curve" smooth="yes"/>
      <point x="514" y="-11"/>
      <point x="453" y="19"/>
      <point x="414" y="78" type="curve"/>
      <point x="375" y="24"/>
      <point x="312" y="-11"/>
      <point x="235" y="-11" type="curve" smooth="yes"/>
      <point x="151" y="-11"/>
      <point x="51" y="37"/>
      <point x="51" y="166" type="curve" smooth="yes"/>
      <point x="51" y="282"/>
      <point x="143" y="337"/>
      <point x="262" y="337" type="curve" smooth="yes"/>
      <point x="309" y="337"/>
      <point x="341" y="329"/>
      <point x="369" y="316" type="curve"/>
      <point x="369" y="353" type="line" smooth="yes"/>
      <point x="369" y="408"/>
      <point x="341" y="440"/>
      <point x="278" y="440" type="curve" smooth="yes"/>
      <point x="226" y="440"/>
      <point x="184" y="430"/>
      <point x="144" y="407" type="curve"/>
      <point x="103" y="487" type="line"/>
      <point x="154" y="518"/>
      <point x="209" y="536"/>
      <point x="281" y="536" type="curve" smooth="yes"/>
      <point x="371" y="536"/>
      <point x="410" y="504"/>
      <point x="434" y="463" type="curve"/>
      <point x="470" y="507"/>
      <point x="514" y="536"/>
      <point x="585" y="536" type="curve" smooth="yes"/>
      <point x="726" y="536"/>
      <point x="794" y="412"/>
    </contour>
    <contour>
      <point x="692" y="313" type="line"/>
      <point x="688" y="383"/>
      <point x="661" y="441"/>
      <point x="580" y="441" type="curve" smooth="yes"/>
      <point x="512" y="441"/>
      <point x="478" y="390"/>
      <point x="471" y="313" type="curve"/>
    </contour>
    <contour>
      <point x="369" y="150" type="curve"/>
      <point x="369" y="223" type="line"/>
      <point x="342" y="237"/>
      <point x="313" y="246"/>
      <point x="258" y="246" type="curve" smooth="yes"/>
      <point x="193" y="246"/>
      <point x="153" y="216"/>
      <point x="153" y="169" type="curve" smooth="yes"/>
      <point x="153" y="118"/>
      <point x="184" y="85"/>
      <point x="251" y="85" type="curve" smooth="yes"/>
      <point x="305" y="85"/>
      <point x="346" y="118"/>
    </contour>
  </outline>
</glyph>
<glyph name="ccedilla" format="1">
  <advance width="522"/>
  <unicode hex="00E7"/>
  <outline>
    <contour>
      <point x="467" y="447" type="curve"/>
      <point x="406" y="374" type="line"/>
      <point x="363" y="418"/>
      <point x="325" y="438"/>
      <point x="278" y="438" type="curve" smooth="yes"/>
      <point x="203" y="438"/>
      <point x="155" y="371"/>
      <point x="155" y="264" type="curve" smooth="yes"/>
      <point x="155" y="161"/>
      <point x="199" y="87"/>
      <point x="281" y="87" type="curve" smooth="yes"/>
      <point x="330" y="87"/>
      <point x="359" y="109"/>
      <point x="400" y="152" type="curve"/>
      <point x="466" y="87" type="line"/>
      <point x="426" y="36"/>
      <point x="375" y="-9"/>
      <point x="284" y="-11" type="curve"/>
      <point x="278" y="-45" type="line"/>
      <point x="290" y="-40"/>
      <point x="304" y="-36"/>
      <point x="326" y="-36" type="curve" smooth="yes"/>
      <point x="360" y="-36"/>
      <point x="398" y="-56"/>
      <point x="398" y="-106" type="curve" smooth="yes"/>
      <point x="398" y="-169"/>
      <point x="343" y="-193"/>
      <point x="276" y="-193" type="curve" smooth="yes"/>
      <point x="228" y="-193"/>
      <point x="189" y="-180"/>
      <point x="153" y="-157" type="curve"/>
      <point x="175" y="-124" type="line"/>
      <point x="201" y="-139"/>
      <point x="232" y="-148"/>
      <point x="263" y="-148" type="curve" smooth="yes"/>
      <point x="307" y="-148"/>
      <point x="327" y="-132"/>
      <point x="327" y="-109" type="curve" smooth="yes"/>
      <point x="327" y="-89"/>
      <point x="314" y="-77"/>
      <point x="295" y="-77" type="curve" smooth="yes"/>
      <point x="277" y="-77"/>
      <point x="266" y="-83"/>
      <point x="255" y="-92" type="curve"/>
      <point x="219" y="-78" type="line"/>
      <point x="233" y="-6" type="line"/>
      <point x="128" y="16"/>
      <point x="51" y="117"/>
      <point x="51" y="261" type="curve" smooth="yes"/>
      <point x="51" y="435"/>
      <point x="153" y="536"/>
      <point x="281" y="536" type="curve" smooth="yes"/>
      <point x="358" y="536"/>
      <point x="418" y="505"/>
    </contour>
  </outline>
</glyph>
<glyph name="eth" format="1">
  <advance width="570"/>
  <unicode hex="00F0"/>
  <outline>
    <contour>
      <point x="519" y="291" type="curve" smooth="yes"/>
      <point x="519" y="75"/>
      <point x="417" y="-11"/>
      <point x="282" y="-11" type="curve" smooth="yes"/>
      <point x="150" y="-11"/>
      <point x="51" y="84"/>
      <point x="51" y="238" type="curve" smooth="yes"/>
      <point x="51" y="399"/>
      <point x="151" y="478"/>
      <point x="264" y="478" type="curve" smooth="yes"/>
      <point x="324" y="478"/>
      <point x="382" y="457"/>
      <point x="418" y="412" type="curve"/>
      <point x="404" y="472"/>
      <point x="375" y="526"/>
      <point x="329" y="565" type="curve"/>
      <point x="279" y="513" type="line"/>
      <point x="220" y="565" type="line"/>
      <point x="259" y="606" type="line"/>
      <point x="235" y="617"/>
      <point x="206" y="624"/>
      <point x="174" y="626" type="curve"/>
      <point x="174" y="711" type="line"/>
      <point x="231" y="708"/>
      <point x="281" y="694"/>
      <point x="322" y="672" type="curve"/>
      <point x="359" y="711" type="line"/>
      <point x="418" y="659" type="line"/>
      <point x="388" y="627" type="line"/>
      <point x="481" y="544"/>
      <point x="519" y="412"/>
    </contour>
    <contour>
      <point x="415" y="238" type="curve" smooth="yes"/>
      <point x="415" y="339"/>
      <point x="358" y="390"/>
      <point x="281" y="390" type="curve" smooth="yes"/>
      <point x="210" y="390"/>
      <point x="155" y="339"/>
      <point x="155" y="241" type="curve" smooth="yes"/>
      <point x="155" y="146"/>
      <point x="208" y="87"/>
      <point x="286" y="87" type="curve" smooth="yes"/>
      <point x="364" y="87"/>
      <point x="415" y="152"/>
    </contour>
  </outline>
</glyph>
<glyph name="oslash" format="1">
  <advance width="570"/>
  <unicode hex="00F8"/>
  <outline>
    <contour>
      <point x="519" y="265" type="curve" smooth="yes"/>
      <point x="519" y="91"/>
      <point x="417" y="-11"/>
      <point x="282" y="-11" type="curve" smooth="yes"/>
      <point x="252" y="-11"/>
      <point x="224" y="-5"/>
      <point x="199" y="5" type="curve"/>
      <point x="171" y="-50" type="line"/>
      <point x="79" y="-50" type="line"/>
      <point x="129" y="51" type="line"/>
      <point x="81" y="99"/>
      <point x="51" y="172"/>
      <point x="51" y="262" type="curve" smooth="yes"/>
      <point x="51" y="434"/>
      <point x="153" y="536"/>
      <point x="285" y="536" type="curve" smooth="yes"/>
      <point x="313" y="536"/>
      <point x="340" y="531"/>
      <point x="365" y="522" type="curve"/>
      <point x="391" y="575" type="line"/>
      <point x="483" y="575" type="line"/>
      <point x="435" y="479" type="line"/>
      <point x="487" y="432"/>
      <point x="519" y="357"/>
    </contour>
    <contour>
      <point x="323" y="438" type="line"/>
      <point x="310" y="442"/>
      <point x="296" y="444"/>
      <point x="281" y="444" type="curve" smooth="yes"/>
      <point x="200" y="444"/>
      <point x="154" y="373"/>
      <point x="154" y="265" type="curve" smooth="yes"/>
      <point x="154" y="213"/>
      <point x="162" y="175"/>
      <point x="177" y="146" type="curve"/>
    </contour>
    <contour>
      <point x="416" y="262" type="curve" smooth="yes"/>
      <point x="416" y="319"/>
      <point x="406" y="357"/>
      <point x="389" y="386" type="curve"/>
      <point x="240" y="89" type="line"/>
      <point x="255" y="84"/>
      <point x="270" y="81"/>
      <point x="286" y="81" type="curve" smooth="yes"/>
      <point x="368" y="81"/>
      <point x="416" y="162"/>
    </contour>
  </outline>
</glyph>
<glyph name="thorn" format="1">
  <advance width="570"/>
  <unicode hex="00FE"/>
  <outline>
    <contour>
      <point x="517" y="254" type="curve" smooth="yes"/>
      <point x="517" y="74"/>
      <point x="419" y="-11"/>
      <point x="310" y="-11" type="curve" smooth="yes"/>
      <point x="257" y="-11"/>
      <point x="207" y="17"/>
      <point x="178" y="49" type="curve"/>
      <point x="178" y="-140" type="line"/>
      <point x="76" y="-193" type="line"/>
      <point x="76" y="676" type="line"/>
      <point x="178" y="729" type="line"/>
      <point x="178" y="475" type="line"/>
      <point x="216" y="510"/>
      <point x="260" y="536"/>
      <point x="315" y="536" type="curve" smooth="yes"/>
      <point x="428" y="536"/>
      <point x="517" y="454"/>
    </contour>
    <contour>
      <point x="414" y="251" type="curve" smooth="yes"/>
      <point x="414" y="383"/>
      <point x="372" y="441"/>
      <point x="296" y="441" type="curve" smooth="yes"/>
      <point x="247" y="441"/>
      <point x="204" y="408"/>
      <point x="177" y="374" type="curve"/>
      <point x="177" y="153" type="line"/>
      <point x="200" y="122"/>
      <point x="248" y="84"/>
      <point x="300" y="84" type="curve" smooth="yes"/>
      <point x="374" y="84"/>
      <point x="414" y="140"/>
    </contour>
  </outline>
</glyph>
<glyph name="Lslash" format="1">
  <advance width="610"/>
  <unicode hex="0141"/>
  <outline>
    <contour>
      <point x="560" y="0" type="line"/>
      <point x="106" y="0" type="line"/>
      <point x="106" y="234" type="line"/>
      <point x="40" y="182" type="line"/>
      <point x="40" y="297" type="line"/>
      <point x="106" y="349" type="line"/>
      <point x="106" y="700" type="line"/>
      <point x="209" y="700" type="line"/>
      <point x="209" y="421" type="line"/>
      <point x="349" y="536" type="line"/>
      <point x="349" y="421" type="line"/>
      <point x="209" y="306" type="line"/>
      <point x="209" y="103" type="line"/>
      <point x="560" y="103" type="line"/>
    </contour>
  </outline>
</glyph>
<glyph name="lslash" format="1">
  <advance width="285"/>
  <unicode hex="0142"/>
  <outline>
    <contour>
      <point x="245" y="357" type="line"/>
      <point x="193" y="312" type="line"/>
      <point x="193" y="0" type="line"/>
      <point x="92" y="0" type="line"/>
      <point x="92" y="238" type="line"/>
      <point x="40" y="199" type="line"/>
      <point x="40" y="314" type="line"/>
      <point x="92" y="354" type="line"/>
      <point x="92" y="676" type="line"/>
      <point x="193" y="729" type="line"/>
      <point x="193" y="428" type="line"/>
      <point x="245" y="472" type="line"/>
    </contour>
  </outline>
</glyph>
<glyph name="OE" format="1">
  <advance width="1059"/>
  <unicode hex="0152"/>
  <outline>
    <contour>
      <point x="1001" y="0" type="line"/>
      <point x="547" y="0" type="line"/>
      <point x="547" y="83" type="line"/>
      <point x="504" y="20"/>
      <point x="427" y="-11"/>
      <point x="354" y="-11" type="curve" smooth="yes"/>
      <point x="173" y="-11"/>
      <point x="58" y="138"/>
      <point x="58" y="350" type="curve" smooth="yes"/>
      <point x="58" y="562"/>
      <point x="173" y="711"/>
      <point x="354" y="711" type="curve" smooth="yes"/>
      <point x="434" y="711"/>
      <point x="511" y="674"/>
      <point x="547" y="617" type="curve"/>
      <point x="547" y="700" type="line"/>
      <point x="986" y="700" type="line"/>
      <point x="986" y="598" type="line"/>
      <point x="640" y="598" type="line"/>
      <point x="640" y="425" type="line"/>
      <point x="841" y="425" type="line"/>
      <point x="841" y="323" type="line"/>
      <point x="640" y="323" type="line"/>
      <point x="640" y="102" type="line"/>
      <point x="1001" y="102" type="line"/>
    </contour>
    <contour>
      <point x="544" y="350" type="curve" smooth="yes"/>
      <point x="544" y="507"/>
      <point x="477" y="606"/>
      <point x="354" y="606" type="curve" smooth="yes"/>
      <point x="232" y="606"/>
      <point x="165" y="507"/>
      <point x="165" y="350" type="curve" smooth="yes"/>
      <point x="165" y="193"/>
      <point x="232" y="94"/>
      <point x="354" y="94" type="curve" smooth="yes"/>
      <point x="477" y="94"/>
      <point x="544" y="193"/>
    </contour>
  </outline>
</glyph>
<glyph name="oe" format="1">
  <advance width="916"/>
  <unicode hex="0153"/>
  <outline>
    <contour>
      <point x="860" y="270" type="curve" smooth="yes"/>
      <point x="860" y="251"/>
      <point x="858" y="236"/>
      <point x="857" y="225" type="curve"/>
      <point x="512" y="225" type="line"/>
      <point x="523" y="126"/>
      <point x="579" y="85"/>
      <point x="642" y="85" type="curve" smooth="yes"/>
      <point x="687" y="85"/>
      <point x="722" y="100"/>
      <point x="755" y="127" type="curve"/>
      <point x="818" y="57" type="line"/>
      <point x="772" y="12"/>
      <point x="717" y="-11"/>
      <point x="636" y="-11" type="curve" smooth="yes"/>
      <point x="568" y="-11"/>
      <point x="498" y="27"/>
      <point x="463" y="89" type="curve"/>
      <point x="424" y="27"/>
      <point x="356" y="-11"/>
      <point x="282" y="-11" type="curve" smooth="yes"/>
      <point x="150" y="-11"/>
      <point x="51" y="98"/>
      <point x="51" y="262" type="curve" smooth="yes"/>
      <point x="51" y="434"/>
      <point x="153" y="536"/>
      <point x="285" y="536" type="curve" smooth="yes"/>
      <point x="358" y="536"/>
      <point x="427" y="497"/>
      <point x="462" y="437" type="curve"/>
      <point x="500" y="500"/>
      <point x="565" y="536"/>
      <point x="639" y="536" type="curve" smooth="yes"/>
      <point x="788" y="536"/>
      <point x="860" y="412"/>
    </contour>
    <contour>
      <point x="753" y="313" type="line"/>
      <point x="749" y="383"/>
      <point x="713" y="441"/>
      <point x="632" y="441" type="curve" smooth="yes"/>
      <point x="564" y="441"/>
      <point x="524" y="396"/>
      <point x="513" y="313" type="curve"/>
    </contour>
    <contour>
      <point x="415" y="262" type="curve" smooth="yes"/>
      <point x="415" y="369"/>
      <point x="364" y="438"/>
      <point x="281" y="438" type="curve" smooth="yes"/>
      <point x="203" y="438"/>
      <point x="155" y="369"/>
      <point x="155" y="265" type="curve" smooth="yes"/>
      <point x="155" y="150"/>
      <point x="208" y="87"/>
      <point x="286" y="87" type="curve" smooth="yes"/>
      <point x="364" y="87"/>
      <point x="415" y="166"/>
    </contour>
  </outline>
</glyph>
<glyph name="florin" format="1">
  <advance width="407"/>
  <unicode hex="0192"/>
  <outline>
    <contour>
      <point x="357" y="611" type="line"/>
      <point x="333" y="618"/>
      <point x="310" y="621"/>
      <point x="287" y="621" type="curve" smooth="yes"/>
      <point x="246" y="621"/>
      <point x="229" y="610"/>
      <point x="229" y="570" type="curve" smooth="yes"/>
      <point x="229" y="525" type="line"/>
      <point x="336" y="525" type="line"/>
      <point x="336" y="429" type="line"/>
      <point x="229" y="429" type="line"/>
      <point x="229" y="-138" type="line"/>
      <point x="126" y="-193" type="line"/>
      <point x="126" y="429" type="line"/>
      <point x="48" y="429" type="line"/>
      <point x="48" y="525" type="line"/>
      <point x="126" y="525" type="line"/>
      <point x="126" y="579" type="line" smooth="yes"/>
      <point x="126" y="678"/>
      <point x="184" y="711"/>
      <point x="269" y="711" type="curve" smooth="yes"/>
      <point x="296" y="711"/>
      <point x="335" y="707"/>
      <point x="357" y="701" type="curve"/>
    </contour>
  </outline>
</glyph>
<glyph name="circumflex" format="1">
  <advance width="500"/>
  <unicode hex="02C6"/>
  <outline>
    <contour>
      <point x="427" y="595" type="line"/>
      <point x="344" y="595" type="line"/>
      <point x="249" y="683" type="line"/>
      <point x="154" y="595" type="line"/>
      <point x="73" y="595" type="line"/>
      <point x="190" y="755" type="line"/>
      <point x="310" y="755" type="line"/>
    </contour>
  </outline>
</glyph>
<glyph name="caron" format="1">
  <advance width="500"/>
  <unicode hex="02C7"/>
  <outline>
    <contour>
      <point x="427" y="755" type="line"/>
      <point x="310" y="595" type="line"/>
      <point x="190" y="595" type="line"/>
      <point x="73" y="755" type="line"/>
      <point x="156" y="755" type="line"/>
      <point x="251" y="667" type="line"/>
      <point x="346" y="755" type="line"/>
    </contour>
  </outline>
</glyph>
<glyph name="breve" format="1">
  <advance width="500"/>
  <unicode hex="02D8"/>
  <outline>
    <contour>
      <point x="427" y="755" type="line"/>
      <point x="418" y="653"/>
      <point x="353" y="595"/>
      <point x="249" y="595" type="curve" smooth="yes"/>
      <point x="148" y="595"/>
      <point x="82" y="653"/>
      <point x="73" y="755" type="curve"/>
      <point x="147" y="755" type="line"/>
      <point x="155" y="708"/>
      <point x="188" y="680"/>
      <point x="251" y="680" type="curve" smooth="yes"/>
      <point x="310" y="680"/>
      <point x="347" y="707"/>
      <point x="355" y="755" type="curve"/>
    </contour>
  </outline>
</glyph>
<glyph name="dotaccent" format="1">
  <advance width="500"/>
  <unicode hex="02D9"/>
  <outline>
    <contour>
      <point x="317" y="662" type="curve" smooth="yes"/>
      <point x="317" y="626"/>
      <point x="286" y="595"/>
      <point x="250" y="595" type="curve" smooth="yes"/>
      <point x="213" y="595"/>
      <point x="182" y="626"/>
      <point x="182" y="662" type="curve" smooth="yes"/>
      <point x="182" y="699"/>
      <point x="213" y="730"/>
      <point x="250" y="730" type="curve" smooth="yes"/>
      <point x="286" y="730"/>
      <point x="317" y="699"/>
    </contour>
  </outline>
</glyph>
<glyph name="ring" format="1">
  <advance width="500"/>
  <unicode hex="02DA"/>
  <outline>
    <contour>
      <point x="376" y="720" type="curve" smooth="yes"/>
      <point x="376" y="648"/>
      <point x="322" y="595"/>
      <point x="250" y="595" type="curve" smooth="yes"/>
      <point x="178" y="595"/>
      <point x="124" y="648"/>
      <point x="124" y="720" type="curve" smooth="yes"/>
      <point x="124" y="792"/>
      <point x="178" y="846"/>
      <point x="250" y="846" type="curve" smooth="yes"/>
      <point x="322" y="846"/>
      <point x="376" y="792"/>
    </contour>
    <contour>
      <point x="311" y="720" type="curve" smooth="yes"/>
      <point x="311" y="756"/>
      <point x="285" y="782"/>
      <point x="250" y="782" type="curve" smooth="yes"/>
      <point x="215" y="782"/>
      <point x="189" y="756"/>
      <point x="189" y="720" type="curve" smooth="yes"/>
      <point x="189" y="684"/>
      <point x="215" y="658"/>
      <point x="250" y="658" type="curve" smooth="yes"/>
      <point x="285" y="658"/>
      <point x="311" y="684"/>
    </contour>
  </outline>
</glyph>
<glyph name="ogonek" format="1">
  <advance width="500"/>
  <unicode hex="02DB"/>
  <outline>
    <contour>
      <point x="376" y="-150" type="line"/>
      <point x="346" y="-173"/>
      <point x="305" y="-193"/>
      <point x="258" y="-193" type="curve" smooth="yes"/>
      <point x="191" y="-193"/>
      <point x="153" y="-163"/>
      <point x="153" y="-107" type="curve" smooth="yes"/>
      <point x="153" y="-63"/>
      <point x="185" y="-28"/>
      <point x="239" y="0" type="curve"/>
      <point x="289" y="0" type="line"/>
      <point x="246" y="-38"/>
      <point x="230" y="-69"/>
      <point x="230" y="-100" type="curve" smooth="yes"/>
      <point x="230" y="-124"/>
      <point x="246" y="-141"/>
      <point x="273" y="-141" type="curve" smooth="yes"/>
      <point x="301" y="-141"/>
      <point x="322" y="-133"/>
      <point x="353" y="-116" type="curve"/>
    </contour>
  </outline>
</glyph>
<glyph name="tilde" format="1">
  <advance width="500"/>
  <unicode hex="02DC"/>
  <outline>
    <contour>
      <point x="439" y="728" type="line"/>
      <point x="439" y="639"/>
      <point x="394" y="592"/>
      <point x="334" y="592" type="curve" smooth="yes"/>
      <point x="296" y="592"/>
      <point x="268" y="604"/>
      <point x="216" y="636" type="curve" smooth="yes"/>
      <point x="202" y="644"/>
      <point x="188" y="650"/>
      <point x="177" y="650" type="curve" smooth="yes"/>
      <point x="155" y="650"/>
      <point x="143" y="636"/>
      <point x="138" y="595" type="curve"/>
      <point x="67" y="595" type="line"/>
      <point x="67" y="684"/>
      <point x="112" y="731"/>
      <point x="172" y="731" type="curve" smooth="yes"/>
      <point x="210" y="731"/>
      <point x="238" y="719"/>
      <point x="290" y="687" type="curve" smooth="yes"/>
      <point x="304" y="679"/>
      <point x="318" y="673"/>
      <point x="329" y="673" type="curve" smooth="yes"/>
      <point x="351" y="673"/>
      <point x="363" y="687"/>
      <point x="368" y="728" type="curve"/>
    </contour>
  </outline>
</glyph>
<glyph name="hungarumlaut" format="1">
  <advance width="500"/>
  <unicode hex="02DD"/>
  <outline>
    <contour>
      <point x="502" y="755" type="line"/>
      <point x="337" y="595" type="line"/>
      <point x="255" y="595" type="line"/>
      <point x="362" y="755" type="line"/>
    </contour>
    <contour>
      <point x="297" y="755" type="line"/>
      <point x="132" y="595" type="line"/>
      <point x="50" y="595" type="line"/>
      <point x="157" y="755" type="line"/>
    </contour>
  </outline>
</glyph>
<glyph name="endash" format="1">
  <advance width="460"/>
  <unicode hex="2013"/>
  <outline>
    <contour>
      <point x="405" y="318" type="line"/>
      <point x="55" y="318" type="line"/>
      <point x="55" y="414" type="line"/>
      <point x="405" y="414" type="line"/>
    </contour>
  </outline>
</glyph>
<glyph name="quoteleft" format="1">
  <advance width="265"/>
  <unicode hex="2018"/>
  <unicode hex="02BB"/>
  <outline>
    <contour>
      <point x="200" y="700" type="line"/>
      <point x="186" y="449" type="line"/>
      <point x="55" y="449" type="line"/>
      <point x="131" y="700" type="line"/>
    </contour>
  </outline>
</glyph>
<glyph name="quoteright" format="1">
  <advance width="265"/>
  <unicode hex="2019"/>
  <unicode hex="02BC"/>
  <outline>
    <contour>
      <point x="210" y="700" type="line"/>
      <point x="134" y="449" type="line"/>
      <point x="65" y="449" type="line"/>
      <point x="79" y="700" type="line"/>
    </contour>
  </outline>
</glyph>
<glyph name="quotesinglbase" format="1">
  <advance width="265"/>
  <unicode hex="201A"/>
  <outline>
    <contour>
      <point x="210" y="139" type="line"/>
      <point x="134" y="-112" type="line"/>
      <point x="65" y="-112" type="line"/>
      <point x="79" y="139" type="line"/>
    </contour>
  </outline>
</glyph>
<glyph name="quotedblleft" format="1">
  <advance width="500"/>
  <unicode hex="201C"/>
  <outline>
    <contour>
      <point x="435" y="700" type="line"/>
      <point x="421" y="449" type="line"/>
      <point x="290" y="449" type="line"/>
      <point x="366" y="700" type="line"/>
    </contour>
    <contour>
      <point x="200" y="700" type="line"/>
      <point x="186" y="449" type="line"/>
      <point x="55" y="449" type="line"/>
      <point x="131" y="700" type="line"/>
    </contour>
  </outline>
</glyph>
<glyph name="quotedblright" format="1">
  <advance width="500"/>
  <unicode hex="201D"/>
  <outline>
    <contour>
      <point x="445" y="700" type="line"/>
      <point x="369" y="449" type="line"/>
      <point x="300" y="449" type="line"/>
      <point x="314" y="700" type="line"/>
    </contour>
    <contour>
      <point x="210" y="700" type="line"/>
      <point x="134" y="449" type="line"/>
      <point x="65" y="449" type="line"/>
      <point x="79" y="700" type="line"/>
    </contour>
  </outline>
</glyph>
<glyph name="quotedblbase" format="1">
  <advance width="500"/>
  <unicode hex="201E"/>
  <outline>
    <contour>
      <point x="445" y="139" type="line"/>
      <point x="369" y="-112" type="line"/>
      <point x="300" y="-112" type="line"/>
      <point x="314" y="139" type="line"/>
    </contour>
    <contour>
      <point x="210" y="139" type="line"/>
      <point x="134" y="-112" type="line"/>
      <point x="65" y="-112" type="line"/>
      <point x="79" y="139" type="line"/>
    </contour>
  </outline>
</glyph>
<glyph name="dagger" format="1">
  <advance width="594"/>
  <unicode hex="2020"/>
  <outline>
    <contour>
      <point x="539" y="380" type="line"/>
      <point x="348" y="380" type="line"/>
      <point x="348" y="-100" type="line"/>
      <point x="246" y="-100" type="line"/>
      <point x="246" y="380" type="line"/>
      <point x="55" y="380" type="line"/>
      <point x="55" y="477" type="line"/>
      <point x="246" y="477" type="line"/>
      <point x="246" y="700" type="line"/>
      <point x="348" y="700" type="line"/>
      <point x="348" y="477" type="line"/>
      <point x="539" y="477" type="line"/>
    </contour>
  </outline>
</glyph>
<glyph name="ellipsis" format="1">
  <advance width="762"/>
  <unicode hex="2026"/>
  <outline>
    <contour>
      <point x="714" y="68" type="curve" smooth="yes"/>
      <point x="714" y="25"/>
      <point x="678" y="-11"/>
      <point x="635" y="-11" type="curve" smooth="yes"/>
      <point x="592" y="-11"/>
      <point x="556" y="25"/>
      <point x="556" y="68" type="curve" smooth="yes"/>
      <point x="556" y="111"/>
      <point x="592" y="148"/>
      <point x="635" y="148" type="curve" smooth="yes"/>
      <point x="678" y="148"/>
      <point x="714" y="111"/>
    </contour>
    <contour>
      <point x="460" y="68" type="curve" smooth="yes"/>
      <point x="460" y="25"/>
      <point x="424" y="-11"/>
      <point x="381" y="-11" type="curve" smooth="yes"/>
      <point x="338" y="-11"/>
      <point x="302" y="25"/>
      <point x="302" y="68" type="curve" smooth="yes"/>
      <point x="302" y="111"/>
      <point x="338" y="148"/>
      <point x="381" y="148" type="curve" smooth="yes"/>
      <point x="424" y="148"/>
      <point x="460" y="111"/>
    </contour>
    <contour>
      <point x="206" y="68" type="curve" smooth="yes"/>
      <point x="206" y="25"/>
      <point x="170" y="-11"/>
      <point x="127" y="-11" type="curve" smooth="yes"/>
      <point x="84" y="-11"/>
      <point x="48" y="25"/>
      <point x="48" y="68" type="curve" smooth="yes"/>
      <point x="48" y="111"/>
      <point x="84" y="148"/>
      <point x="127" y="148" type="curve" smooth="yes"/>
      <point x="170" y="148"/>
      <point x="206" y="111"/>
    </contour>
  </outline>
</glyph>
<glyph name="perthousand" format="1">
  <advance width="1372"/>
  <unicode hex="2030"/>
  <outline>
    <contour>
      <point x="395" y="494" type="curve" smooth="yes"/>
      <point x="395" y="367"/>
      <point x="323" y="276"/>
      <point x="221" y="276" type="curve" smooth="yes"/>
      <point x="119" y="276"/>
      <point x="50" y="365"/>
      <point x="50" y="492" type="curve" smooth="yes"/>
      <point x="50" y="621"/>
      <point x="119" y="711"/>
      <point x="223" y="711" type="curve" smooth="yes"/>
      <point x="329" y="711"/>
      <point x="395" y="621"/>
    </contour>
    <contour>
      <point x="754" y="700" type="line"/>
      <point x="325" y="0" type="line"/>
      <point x="224" y="0" type="line"/>
      <point x="653" y="700" type="line"/>
    </contour>
    <contour>
      <point x="1333" y="207" type="curve" smooth="yes"/>
      <point x="1333" y="80"/>
      <point x="1261" y="-11"/>
      <point x="1159" y="-11" type="curve" smooth="yes"/>
      <point x="1057" y="-11"/>
      <point x="988" y="78"/>
      <point x="988" y="205" type="curve" smooth="yes"/>
      <point x="988" y="334"/>
      <point x="1057" y="424"/>
      <point x="1161" y="424" type="curve" smooth="yes"/>
      <point x="1267" y="424"/>
      <point x="1333" y="334"/>
    </contour>
    <contour>
      <point x="929" y="207" type="curve" smooth="yes"/>
      <point x="929" y="80"/>
      <point x="857" y="-11"/>
      <point x="755" y="-11" type="curve" smooth="yes"/>
      <point x="653" y="-11"/>
      <point x="584" y="78"/>
      <point x="584" y="205" type="curve" smooth="yes"/>
      <point x="584" y="334"/>
      <point x="653" y="424"/>
      <point x="757" y="424" type="curve" smooth="yes"/>
      <point x="863" y="424"/>
      <point x="929" y="334"/>
    </contour>
    <contour>
      <point x="305" y="492" type="curve" smooth="yes"/>
      <point x="305" y="572"/>
      <point x="275" y="624"/>
      <point x="222" y="624" type="curve" smooth="yes"/>
      <point x="169" y="624"/>
      <point x="140" y="574"/>
      <point x="140" y="494" type="curve" smooth="yes"/>
      <point x="140" y="414"/>
      <point x="170" y="362"/>
      <point x="223" y="362" type="curve" smooth="yes"/>
      <point x="276" y="362"/>
      <point x="305" y="419"/>
    </contour>
    <contour>
      <point x="1243" y="205" type="curve" smooth="yes"/>
      <point x="1243" y="285"/>
      <point x="1213" y="337"/>
      <point x="1160" y="337" type="curve" smooth="yes"/>
      <point x="1107" y="337"/>
      <point x="1078" y="287"/>
      <point x="1078" y="207" type="curve" smooth="yes"/>
      <point x="1078" y="127"/>
      <point x="1108" y="75"/>
      <point x="1161" y="75" type="curve" smooth="yes"/>
      <point x="1214" y="75"/>
      <point x="1243" y="132"/>
    </contour>
    <contour>
      <point x="839" y="205" type="curve" smooth="yes"/>
      <point x="839" y="285"/>
      <point x="809" y="337"/>
      <point x="756" y="337" type="curve" smooth="yes"/>
      <point x="703" y="337"/>
      <point x="674" y="287"/>
      <point x="674" y="207" type="curve" smooth="yes"/>
      <point x="674" y="127"/>
      <point x="704" y="75"/>
      <point x="757" y="75" type="curve" smooth="yes"/>
      <point x="810" y="75"/>
      <point x="839" y="132"/>
    </contour>
  </outline>
</glyph>
<glyph name="guilsinglleft" format="1">
  <advance width="366"/>
  <unicode hex="2039"/>
  <outline>
    <contour>
      <point x="326" y="0" type="line"/>
      <point x="215" y="0" type="line"/>
      <point x="30" y="262" type="line"/>
      <point x="215" y="525" type="line"/>
      <point x="326" y="525" type="line"/>
      <point x="146" y="263" type="line"/>
    </contour>
  </outline>
</glyph>
<glyph name="guilsinglright" format="1">
  <advance width="366"/>
  <unicode hex="203A"/>
  <outline>
    <contour>
      <point x="336" y="263" type="line"/>
      <point x="151" y="0" type="line"/>
      <point x="40" y="0" type="line"/>
      <point x="220" y="262" type="line"/>
      <point x="40" y="525" type="line"/>
      <point x="151" y="525" type="line"/>
    </contour>
  </outline>
</glyph>
<glyph name="fraction" format="1">
  <advance width="473"/>
  <unicode hex="2044"/>
  <outline>
    <contour>
      <point x="529" y="700" type="line"/>
      <point x="60" y="0" type="line"/>
      <point x="-56" y="0" type="line"/>
      <point x="413" y="700" type="line"/>
    </contour>
  </outline>
</glyph>
<glyph name="Euro" format="1">
  <advance width="614"/>
  <unicode hex="20AC"/>
  <outline>
    <contour>
      <point x="160" y="390" type="line"/>
      <point x="159" y="377"/>
      <point x="159" y="364"/>
      <point x="159" y="351" type="curve" smooth="yes"/>
      <point x="159" y="338"/>
      <point x="159" y="326"/>
      <point x="160" y="314" type="curve"/>
      <point x="409" y="314" type="line"/>
      <point x="409" y="232" type="line"/>
      <point x="172" y="232" type="line"/>
      <point x="195" y="146"/>
      <point x="247" y="91"/>
      <point x="336" y="91" type="curve" smooth="yes"/>
      <point x="406" y="91"/>
      <point x="445" y="123"/>
      <point x="488" y="185" type="curve"/>
      <point x="567" y="128" type="line"/>
      <point x="515" y="50"/>
      <point x="451" y="-11"/>
      <point x="334" y="-11" type="curve" smooth="yes"/>
      <point x="159" y="-11"/>
      <point x="55" y="128"/>
      <point x="55" y="350" type="curve" smooth="yes"/>
      <point x="55" y="579"/>
      <point x="166" y="711"/>
      <point x="337" y="711" type="curve" smooth="yes"/>
      <point x="452" y="711"/>
      <point x="510" y="663"/>
      <point x="562" y="566" type="curve"/>
      <point x="477" y="515" type="line"/>
      <point x="438" y="578"/>
      <point x="406" y="609"/>
      <point x="335" y="609" type="curve" smooth="yes"/>
      <point x="246" y="609"/>
      <point x="195" y="555"/>
      <point x="173" y="472" type="curve"/>
      <point x="409" y="472" type="line"/>
      <point x="409" y="390" type="line"/>
    </contour>
  </outline>
</glyph>
<glyph name="uni2117" format="1">
  <advance width="836"/>
  <unicode hex="2117"/>
  <outline>
    <contour>
      <point x="779" y="350" type="curve" smooth="yes"/>
      <point x="779" y="145"/>
      <point x="623" y="-11"/>
      <point x="418" y="-11" type="curve" smooth="yes"/>
      <point x="213" y="-11"/>
      <point x="57" y="145"/>
      <point x="57" y="350" type="curve" smooth="yes"/>
      <point x="57" y="555"/>
      <point x="213" y="711"/>
      <point x="418" y="711" type="curve" smooth="yes"/>
      <point x="623" y="711"/>
      <point x="779" y="555"/>
    </contour>
    <contour>
      <point x="721" y="350" type="curve" smooth="yes"/>
      <point x="721" y="522"/>
      <point x="590" y="653"/>
      <point x="418" y="653" type="curve" smooth="yes"/>
      <point x="246" y="653"/>
      <point x="115" y="522"/>
      <point x="115" y="350" type="curve" smooth="yes"/>
      <point x="115" y="178"/>
      <point x="246" y="47"/>
      <point x="418" y="47" type="curve" smooth="yes"/>
      <point x="590" y="47"/>
      <point x="721" y="178"/>
    </contour>
    <contour>
      <point x="594" y="423" type="curve" smooth="yes"/>
      <point x="594" y="340"/>
      <point x="539" y="297"/>
      <point x="461" y="297" type="curve" smooth="yes"/>
      <point x="367" y="297" type="line"/>
      <point x="367" y="153" type="line"/>
      <point x="300" y="153" type="line"/>
      <point x="300" y="547" type="line"/>
      <point x="465" y="547" type="line" smooth="yes"/>
      <point x="534" y="547"/>
      <point x="594" y="504"/>
    </contour>
    <contour>
      <point x="526" y="423" type="curve" smooth="yes"/>
      <point x="526" y="462"/>
      <point x="501" y="482"/>
      <point x="464" y="482" type="curve" smooth="yes"/>
      <point x="367" y="482" type="line"/>
      <point x="367" y="361" type="line"/>
      <point x="464" y="361" type="line" smooth="yes"/>
      <point x="505" y="361"/>
      <point x="526" y="384"/>
    </contour>
  </outline>
</glyph>
<glyph name="trademark" format="1">
  <advance width="770"/>
  <unicode hex="2122"/>
  <outline>
    <contour>
      <point x="310" y="634" type="line"/>
      <point x="198" y="634" type="line"/>
      <point x="198" y="306" type="line"/>
      <point x="131" y="306" type="line"/>
      <point x="131" y="634" type="line"/>
      <point x="19" y="634" type="line"/>
      <point x="19" y="700" type="line"/>
      <point x="310" y="700" type="line"/>
    </contour>
    <contour>
      <point x="728" y="306" type="line"/>
      <point x="664" y="306" type="line"/>
      <point x="664" y="514" type="line" smooth="yes"/>
      <point x="664" y="528"/>
      <point x="664" y="545"/>
      <point x="664" y="559" type="curve"/>
      <point x="659" y="547"/>
      <point x="654" y="533"/>
      <point x="648" y="520" type="curve" smooth="yes"/>
      <point x="550" y="294" type="line"/>
      <point x="454" y="520" type="line" smooth="yes"/>
      <point x="449" y="533"/>
      <point x="443" y="547"/>
      <point x="438" y="558" type="curve"/>
      <point x="439" y="544"/>
      <point x="439" y="527"/>
      <point x="439" y="514" type="curve" smooth="yes"/>
      <point x="439" y="306" type="line"/>
      <point x="375" y="306" type="line"/>
      <point x="375" y="700" type="line"/>
      <point x="442" y="700" type="line"/>
      <point x="531" y="496" type="line" smooth="yes"/>
      <point x="538" y="479"/>
      <point x="546" y="457"/>
      <point x="552" y="442" type="curve"/>
      <point x="558" y="458"/>
      <point x="565" y="478"/>
      <point x="573" y="496" type="curve" smooth="yes"/>
      <point x="660" y="700" type="line"/>
      <point x="728" y="700" type="line"/>
    </contour>
  </outline>
</glyph>
<glyph name="arrowleft" format="1">
  <advance width="650"/>
  <unicode hex="2190"/>
  <outline>
    <contour>
      <point x="605" y="296" type="line"/>
      <point x="228" y="296" type="line"/>
      <point x="249" y="229" type="line" smooth="yes"/>
      <point x="253" y="217"/>
      <point x="249" y="210"/>
      <point x="240" y="204" type="curve" smooth="yes"/>
      <point x="236" y="201"/>
      <point x="227" y="201"/>
      <point x="218" y="206" type="curve"/>
      <point x="20" y="346" type="line"/>
      <point x="219" y="485" type="line" smooth="yes"/>
      <point x="228" y="491"/>
      <point x="236" y="491"/>
      <point x="240" y="488" type="curve" smooth="yes"/>
      <point x="249" y="482"/>
      <point x="252" y="475"/>
      <point x="249" y="464" type="curve" smooth="yes"/>
      <point x="228" y="396" type="line"/>
      <point x="605" y="396" type="line"/>
    </contour>
  </outline>
</glyph>
<glyph name="arrowright" format="1">
  <advance width="650"/>
  <unicode hex="2192"/>
  <outline>
    <contour>
      <point x="630" y="346" type="line"/>
      <point x="431" y="206" type="line"/>
      <point x="422" y="201"/>
      <point x="414" y="201"/>
      <point x="410" y="204" type="curve" smooth="yes"/>
      <point x="401" y="210"/>
      <point x="397" y="217"/>
      <point x="401" y="229" type="curve" smooth="yes"/>
      <point x="422" y="296" type="line"/>
      <point x="45" y="296" type="line"/>
      <point x="45" y="396" type="line"/>
      <point x="422" y="396" type="line"/>
      <point x="401" y="464" type="line" smooth="yes"/>
      <point x="398" y="475"/>
      <point x="401" y="482"/>
      <point x="410" y="488" type="curve" smooth="yes"/>
      <point x="414" y="491"/>
      <point x="422" y="491"/>
      <point x="431" y="485" type="curve" smooth="yes"/>
    </contour>
  </outline>
</glyph>
<glyph name="arrowdown" format="1">
  <advance width="410"/>
  <unicode hex="2193"/>
  <outline>
    <contour>
      <point x="347" y="205" type="curve" smooth="yes"/>
      <point x="350" y="201"/>
      <point x="350" y="193"/>
      <point x="344" y="184" type="curve" smooth="yes"/>
      <point x="205" y="-15" type="line"/>
      <point x="65" y="184" type="line"/>
      <point x="60" y="193"/>
      <point x="60" y="201"/>
      <point x="63" y="205" type="curve" smooth="yes"/>
      <point x="69" y="214"/>
      <point x="76" y="218"/>
      <point x="88" y="214" type="curve" smooth="yes"/>
      <point x="155" y="193" type="line"/>
      <point x="155" y="700" type="line"/>
      <point x="255" y="700" type="line"/>
      <point x="255" y="194" type="line"/>
      <point x="323" y="214" type="line" smooth="yes"/>
      <point x="334" y="217"/>
      <point x="341" y="214"/>
    </contour>
  </outline>
</glyph>
<glyph name="arrowboth" format="1">
  <advance width="800"/>
  <unicode hex="2194"/>
  <outline>
    <contour>
      <point x="780" y="346" type="line"/>
      <point x="581" y="206" type="line"/>
      <point x="572" y="201"/>
      <point x="564" y="201"/>
      <point x="560" y="204" type="curve" smooth="yes"/>
      <point x="551" y="210"/>
      <point x="547" y="217"/>
      <point x="551" y="229" type="curve" smooth="yes"/>
      <point x="572" y="296" type="line"/>
      <point x="228" y="296" type="line"/>
      <point x="249" y="229" type="line" smooth="yes"/>
      <point x="253" y="217"/>
      <point x="249" y="210"/>
      <point x="240" y="204" type="curve" smooth="yes"/>
      <point x="236" y="201"/>
      <point x="227" y="201"/>
      <point x="218" y="206" type="curve"/>
      <point x="20" y="346" type="line"/>
      <point x="219" y="485" type="line" smooth="yes"/>
      <point x="228" y="491"/>
      <point x="236" y="491"/>
      <point x="240" y="488" type="curve" smooth="yes"/>
      <point x="249" y="482"/>
      <point x="252" y="475"/>
      <point x="249" y="464" type="curve" smooth="yes"/>
      <point x="228" y="396" type="line"/>
      <point x="572" y="396" type="line"/>
      <point x="551" y="464" type="line" smooth="yes"/>
      <point x="548" y="475"/>
      <point x="551" y="482"/>
      <point x="560" y="488" type="curve" smooth="yes"/>
      <point x="564" y="491"/>
      <point x="572" y="491"/>
      <point x="581" y="485" type="curve" smooth="yes"/>
    </contour>
  </outline>
</glyph>
<glyph name="radical" format="1">
  <advance width="617"/>
  <unicode hex="221A"/>
  <outline>
    <contour>
      <point x="581" y="700" type="line"/>
      <point x="310" y="0" type="line"/>
      <point x="201" y="0" type="line"/>
      <point x="38" y="340" type="line"/>
      <point x="157" y="340" type="line"/>
      <point x="200" y="242" type="line" smooth="yes"/>
      <point x="217" y="204"/>
      <point x="247" y="135"/>
      <point x="255" y="110" type="curve"/>
      <point x="263" y="136"/>
      <point x="286" y="207"/>
      <point x="300" y="246" type="curve" smooth="yes"/>
      <point x="466" y="700" type="line"/>
    </contour>
  </outline>
</glyph>
<glyph name="fi" format="1">
  <advance width="620"/>
  <unicode hex="FB01"/>
  <outline>
    <contour>
      <point x="554" y="659" type="curve" smooth="yes"/>
      <point x="554" y="623"/>
      <point x="524" y="593"/>
      <point x="488" y="593" type="curve" smooth="yes"/>
      <point x="451" y="593"/>
      <point x="421" y="623"/>
      <point x="421" y="659" type="curve" smooth="yes"/>
      <point x="421" y="696"/>
      <point x="451" y="726"/>
      <point x="488" y="726" type="curve" smooth="yes"/>
      <point x="524" y="726"/>
      <point x="554" y="696"/>
    </contour>
    <contour>
      <point x="322" y="626" type="line"/>
      <point x="298" y="633"/>
      <point x="280" y="636"/>
      <point x="262" y="636" type="curve" smooth="yes"/>
      <point x="228" y="636"/>
      <point x="214" y="623"/>
      <point x="214" y="585" type="curve" smooth="yes"/>
      <point x="214" y="525" type="line"/>
      <point x="311" y="525" type="line"/>
      <point x="311" y="429" type="line"/>
      <point x="214" y="429" type="line"/>
      <point x="214" y="0" type="line"/>
      <point x="111" y="0" type="line"/>
      <point x="111" y="429" type="line"/>
      <point x="43" y="429" type="line"/>
      <point x="43" y="525" type="line"/>
      <point x="111" y="525" type="line"/>
      <point x="111" y="594" type="line" smooth="yes"/>
      <point x="111" y="690"/>
      <point x="170" y="726"/>
      <point x="244" y="726" type="curve" smooth="yes"/>
      <point x="271" y="726"/>
      <point x="300" y="722"/>
      <point x="322" y="716" type="curve"/>
    </contour>
    <contour>
      <point x="539" y="0" type="line"/>
      <point x="436" y="0" type="line"/>
      <point x="436" y="525" type="line"/>
      <point x="539" y="525" type="line"/>
    </contour>
  </outline>
</glyph>
<glyph name="fl" format="1">
  <advance width="620"/>
  <unicode hex="FB02"/>
  <outline>
    <contour>
      <point x="539" y="0" type="line"/>
      <point x="436" y="0" type="line"/>
      <point x="436" y="675" type="line"/>
      <point x="539" y="729" type="line"/>
    </contour>
    <contour>
      <point x="322" y="626" type="line"/>
      <point x="298" y="633"/>
      <point x="280" y="636"/>
      <point x="262" y="636" type="curve" smooth="yes"/>
      <point x="228" y="636"/>
      <point x="214" y="623"/>
      <point x="214" y="585" type="curve" smooth="yes"/>
      <point x="214" y="525" type="line"/>
      <point x="311" y="525" type="line"/>
      <point x="311" y="429" type="line"/>
      <point x="214" y="429" type="line"/>
      <point x="214" y="0" type="line"/>
      <point x="111" y="0" type="line"/>
      <point x="111" y="429" type="line"/>
      <point x="43" y="429" type="line"/>
      <point x="43" y="525" type="line"/>
      <point x="111" y="525" type="line"/>
      <point x="111" y="594" type="line" smooth="yes"/>
      <point x="111" y="690"/>
      <point x="170" y="726"/>
      <point x="244" y="726" type="curve" smooth="yes"/>
      <point x="271" y="726"/>
      <point x="300" y="722"/>
      <point x="322" y="716" type="curve"/>
    </contour>
  </outline>
</glyph>
<glyph name="bullet" format="1">
  <advance width="430"/>
  <outline>
    <contour>
      <point x="365" y="366" type="curve" smooth="yes"/>
      <point x="365" y="282"/>
      <point x="299" y="216"/>
      <point x="215" y="216" type="curve" smooth="yes"/>
      <point x="131" y="216"/>
      <point x="65" y="282"/>
      <point x="65" y="366" type="curve" smooth="yes"/>
      <point x="65" y="450"/>
      <point x="131" y="518"/>
      <point x="215" y="518" type="curve" smooth="yes"/>
      <point x="299" y="518"/>
      <point x="365" y="450"/>
    </contour>
  </outline>
</glyph>
<glyph name="macron" format="1">
  <advance width="500"/>
  <outline>
    <contour>
      <point x="390" y="610" type="line"/>
      <point x="110" y="610" type="line"/>
      <point x="110" y="700" type="line"/>
      <point x="390" y="700" type="line"/>
    </contour>
  </outline>
</glyph>
<glyph name="registered" format="1">
  <advance width="836"/>
  <outline>
    <contour>
      <point x="779" y="350" type="curve" smooth="yes"/>
      <point x="779" y="145"/>
      <point x="623" y="-11"/>
      <point x="418" y="-11" type="curve" smooth="yes"/>
      <point x="213" y="-11"/>
      <point x="57" y="145"/>
      <point x="57" y="350" type="curve" smooth="yes"/>
      <point x="57" y="555"/>
      <point x="213" y="711"/>
      <point x="418" y="711" type="curve" smooth="yes"/>
      <point x="623" y="711"/>
      <point x="779" y="555"/>
    </contour>
    <contour>
      <point x="721" y="350" type="curve" smooth="yes"/>
      <point x="721" y="522"/>
      <point x="590" y="653"/>
      <point x="418" y="653" type="curve" smooth="yes"/>
      <point x="246" y="653"/>
      <point x="115" y="522"/>
      <point x="115" y="350" type="curve" smooth="yes"/>
      <point x="115" y="178"/>
      <point x="246" y="47"/>
      <point x="418" y="47" type="curve" smooth="yes"/>
      <point x="590" y="47"/>
      <point x="721" y="178"/>
    </contour>
    <contour>
      <point x="583" y="435" type="curve" smooth="yes"/>
      <point x="583" y="373"/>
      <point x="550" y="334"/>
      <point x="499" y="319" type="curve"/>
      <point x="580" y="160" type="line"/>
      <point x="501" y="160" type="line"/>
      <point x="424" y="312" type="line"/>
      <point x="348" y="312" type="line"/>
      <point x="348" y="160" type="line"/>
      <point x="281" y="160" type="line"/>
      <point x="281" y="554" type="line"/>
      <point x="454" y="554" type="line" smooth="yes"/>
      <point x="524" y="554"/>
      <point x="583" y="517"/>
    </contour>
    <contour>
      <point x="515" y="433" type="curve" smooth="yes"/>
      <point x="515" y="470"/>
      <point x="488" y="489"/>
      <point x="452" y="489" type="curve" smooth="yes"/>
      <point x="348" y="489" type="line"/>
      <point x="348" y="377" type="line"/>
      <point x="452" y="377" type="line" smooth="yes"/>
      <point x="488" y="377"/>
      <point x="515" y="394"/>
    </contour>
  </outline>
</glyph>
